<?xml version="1.0" encoding="iso-8859-1"?>
<!-- Uploaded to: SVG Repo, www.svgrepo.com, Generator: SVG Repo Mixer Tools -->
<svg fill="#000000" height="800px" width="800px" version="1.1" id="Layer_1" xmlns="http://www.w3.org/2000/svg" xmlns:xlink="http://www.w3.org/1999/xlink" 
	 viewBox="0 0 512.001 512.001" xml:space="preserve">
<g>
	<g>
		<path d="M226.976,220.298c-0.794-4.393-5.01-7.316-9.393-6.518c-6.897,1.246-11.905,7.215-11.905,14.196
			c0,2.231-0.889,4.309-2.505,5.851c-1.615,1.54-3.738,2.327-5.981,2.224c-4.236-0.199-7.682-4.027-7.682-8.532
			c0-6.598-4.731-12.348-11.249-13.672c-4.378-0.89-8.644,1.937-9.532,6.312c-0.772,3.797,1.256,7.513,4.664,9.01
			c0.803,12.471,10.632,22.447,23.038,23.031c0.396,0.018,0.789,0.028,1.182,0.028c6.264,0,12.162-2.356,16.719-6.703
			c4.45-4.244,7.13-10.086,7.476-16.201C225.43,227.998,227.684,224.224,226.976,220.298z"/>
	</g>
</g>
<g>
	<g>
		<path d="M308.066,153.325c-3.906-2.161-8.826-0.744-10.987,3.161c-3.382,6.115-5.17,12.951-5.17,19.769v30.163
			c0,2.231-0.889,4.309-2.505,5.851c-1.616,1.54-3.755,2.327-5.981,2.224c-3.033-0.142-5.768-2.156-7.012-5.157
			c-1.359-4.126-5.757-6.452-9.959-5.219c-4.284,1.261-6.733,5.755-5.471,10.038c0.107,0.361,0.219,0.682,0.324,0.951
			c3.536,8.994,11.92,15.093,21.357,15.537c0.396,0.018,0.789,0.028,1.182,0.028c6.264,0,12.162-2.356,16.719-6.703
			c4.775-4.555,7.514-10.951,7.514-17.549v-30.163c0-4.087,1.09-8.217,3.151-11.943
			C313.387,160.405,311.973,155.485,308.066,153.325z"/>
	</g>
</g>
<g>
	<g>
		<path d="M406.176,138.544c-8.057-42.242-25.363-75.747-51.438-99.586C332.469,18.6,304.759,6.191,272.369,2.073
			c-6.62-1.137-15.62-1.917-23.658-2.052c-0.197-0.014-0.399-0.024-0.596-0.021c-37.717,0.139-74.516,15.386-100.961,41.831
			c-45.78,45.78-53.914,115.16-24.42,169.339c-6.647,7.415-10.286,16.89-10.286,26.927c0,10.799,4.207,20.95,11.843,28.578
			c4.609,4.609,9.438,8.917,14.451,12.939l91.991,220.778c2.938,7.052,9.772,11.608,17.411,11.608
			c7.639,0,14.474-4.556,17.411-11.608l78.818-189.162c1.718-4.122-0.232-8.855-4.353-10.572c-4.122-1.716-8.854,0.231-10.572,4.353
			l-78.816,189.163c-0.601,1.443-1.817,1.659-2.488,1.659c-0.67,0-1.886-0.216-2.488-1.659L163.08,295.989
			c25.707,14.302,54.788,21.916,85.064,21.916c46.833,0,90.818-18.194,123.85-51.226c7.639-7.632,11.846-17.782,11.846-28.582
			c0-10.018-3.626-19.474-10.244-26.878c7.622-13.934,12.858-29.081,15.469-45.058c5.499-1.485,10.236-4.907,13.471-9.768
			C406.069,151.088,407.361,144.749,406.176,138.544z M389.08,147.433c-1.085,1.63-2.664,2.749-4.469,3.178
			c-0.085-0.005-0.17-0.012-0.257-0.017c-0.498-0.032-0.995-0.058-1.489-0.058h-0.902c-4.101,0-7.553,3.071-8.029,7.144
			c-3.337,28.503-15.866,54.334-36.231,74.699c-3.157,3.157-3.157,8.275,0,11.432c3.158,3.157,8.276,3.158,11.433,0
			c5.615-5.615,10.686-11.608,15.223-17.915c2.146,3.666,3.316,7.838,3.316,12.2c0,6.477-2.524,12.566-7.109,17.146
			c-29.981,29.982-69.906,46.493-112.42,46.493c-35.808,0-69.778-11.715-97.519-33.325c-0.135-0.114-0.274-0.222-0.416-0.327
			c-5.046-3.957-9.885-8.239-14.488-12.843c-4.581-4.578-7.106-10.666-7.106-17.143c0-4.371,1.175-8.553,3.332-12.227
			c4.5,6.288,9.562,12.297,15.206,17.94c1.579,1.578,3.649,2.368,5.717,2.368s4.138-0.789,5.717-2.368
			c3.157-3.157,3.157-8.276,0-11.432c-49.382-49.382-49.382-129.731,0-179.114c23.35-23.35,55.823-36.855,89.156-37.093
			c0.096,0.004,0.192,0.008,0.289,0.01c7.436,0.103,15.773,0.814,21.755,1.855c0.124,0.022,0.248,0.04,0.374,0.056
			c29.087,3.667,53.873,14.703,73.668,32.799c23.443,21.433,39.076,51.943,46.465,90.682
			C390.68,143.596,390.249,145.676,389.08,147.433z"/>
	</g>
</g>
<g>
	<g>
		<circle cx="215.807" cy="342.233" r="16.168"/>
	</g>
</g>
<g>
	<g>
		<circle cx="280.48" cy="342.233" r="16.168"/>
	</g>
</g>
</svg>