<svg xmlns="http://www.w3.org/2000/svg" xmlns:xlink="http://www.w3.org/1999/xlink" width="500" zoomAndPan="magnify" viewBox="0 0 375 374.999991" height="500" preserveAspectRatio="xMidYMid meet" version="1.0"><defs><clipPath id="4b92c35029"><path d="M 17 17 L 358 17 L 358 358.078125 L 17 358.078125 Z M 17 17 " clip-rule="nonzero"/></clipPath></defs><g clip-path="url(#4b92c35029)"><path stroke-linecap="round" transform="matrix(6.402439, 0, 0, 6.402439, -17.423754, -17.103632)" fill="none" stroke-linejoin="round" d="M 57.590043 34.47022 C 56.350281 47.479789 45.390102 57.649864 32.06022 57.649864 C 17.899967 57.660236 6.410204 46.169864 6.410204 31.999848 C 6.410204 17.820071 17.899967 6.34007 32.069982 6.34007 C 32.47022 6.34007 32.869848 6.349832 33.270086 6.379728 C 33.279848 9.429713 34.320101 12.239922 36.049789 14.490041 C 36.21025 21.259922 41.420057 26.760146 48.039849 27.409922 C 49.900102 31.070027 53.410117 33.760042 57.590043 34.47022 Z M 57.590043 34.47022 " stroke="#000000" stroke-width="2" stroke-opacity="1" stroke-miterlimit="10"/></g><path stroke-linecap="round" transform="matrix(6.402439, 0, 0, 6.402439, -17.423754, -17.103632)" fill="none" stroke-linejoin="round" d="M 29.55019 19.129997 C 29.55019 19.242869 29.544699 19.35513 29.533717 19.467392 C 29.522125 19.579044 29.505652 19.690696 29.483687 19.801128 C 29.461723 19.911559 29.434878 20.02077 29.401932 20.128761 C 29.368985 20.236142 29.331158 20.342303 29.287839 20.446634 C 29.245131 20.550354 29.196932 20.652244 29.143851 20.751693 C 29.090771 20.851142 29.032809 20.947541 28.969967 21.040889 C 28.907735 21.134848 28.840622 21.225145 28.769238 21.312392 C 28.697854 21.399639 28.622199 21.482616 28.542274 21.562541 C 28.462958 21.641857 28.379372 21.717512 28.292125 21.788895 C 28.205488 21.86089 28.11458 21.927392 28.021232 21.990235 C 27.927274 22.053077 27.830875 22.110428 27.731426 22.163509 C 27.631976 22.217199 27.530696 22.264788 27.426366 22.308107 C 27.322646 22.351425 27.216485 22.389253 27.108494 22.421589 C 27.000503 22.454535 26.891902 22.481991 26.78086 22.503955 C 26.670428 22.525919 26.559387 22.542393 26.447125 22.553375 C 26.334863 22.564357 26.222601 22.569848 26.109729 22.569848 C 25.997467 22.569848 25.885205 22.564357 25.772943 22.553375 C 25.660681 22.542393 25.54964 22.525919 25.438598 22.503955 C 25.328166 22.481991 25.218955 22.454535 25.111574 22.421589 C 25.003583 22.389253 24.897422 22.351425 24.793702 22.308107 C 24.689372 22.264788 24.587482 22.217199 24.488643 22.163509 C 24.389193 22.110428 24.292794 22.053077 24.198836 21.990235 C 24.104878 21.927392 24.01458 21.86089 23.927943 21.788895 C 23.840696 21.717512 23.75711 21.641857 23.677794 21.562541 C 23.597869 21.482616 23.522214 21.399639 23.45083 21.312392 C 23.379446 21.225145 23.312333 21.134848 23.249491 21.040889 C 23.187259 20.947541 23.129297 20.851142 23.076217 20.751693 C 23.023137 20.652244 22.974937 20.550354 22.931619 20.446634 C 22.88891 20.342303 22.851083 20.236142 22.818137 20.128761 C 22.78519 20.02077 22.758345 19.911559 22.736381 19.801128 C 22.714416 19.690696 22.697333 19.579044 22.686351 19.467392 C 22.675369 19.35513 22.669878 19.242869 22.669878 19.129997 C 22.669878 19.017125 22.675369 18.904863 22.686351 18.792601 C 22.697333 18.680949 22.714416 18.569297 22.736381 18.458866 C 22.758345 18.348434 22.78519 18.239223 22.818137 18.131232 C 22.851083 18.023851 22.88891 17.91769 22.931619 17.81336 C 22.974937 17.709639 23.023137 17.607749 23.076217 17.5083 C 23.129297 17.408851 23.187259 17.312452 23.249491 17.219104 C 23.312333 17.125145 23.379446 17.034848 23.45083 16.947601 C 23.522214 16.860354 23.597869 16.777377 23.677794 16.697452 C 23.75711 16.618136 23.840696 16.542482 23.927943 16.471098 C 24.01458 16.399104 24.104878 16.332601 24.198836 16.269758 C 24.292794 16.206916 24.389193 16.149565 24.488643 16.096485 C 24.587482 16.042794 24.689372 15.995205 24.793702 15.951886 C 24.897422 15.908568 25.003583 15.87074 25.111574 15.838404 C 25.218955 15.805458 25.328166 15.778002 25.438598 15.756038 C 25.54964 15.734074 25.660681 15.717601 25.772943 15.706618 C 25.885205 15.695636 25.997467 15.690145 26.109729 15.690145 C 26.222601 15.690145 26.334863 15.695636 26.447125 15.706618 C 26.559387 15.717601 26.670428 15.734074 26.78086 15.756038 C 26.891902 15.778002 27.000503 15.805458 27.108494 15.838404 C 27.216485 15.87074 27.322646 15.908568 27.426366 15.951886 C 27.530696 15.995205 27.631976 16.042794 27.731426 16.096485 C 27.830875 16.149565 27.927274 16.206916 28.021232 16.269758 C 28.11458 16.332601 28.205488 16.399104 28.292125 16.471098 C 28.379372 16.542482 28.462958 16.618136 28.542274 16.697452 C 28.622199 16.777377 28.697854 16.860354 28.769238 16.947601 C 28.840622 17.034848 28.907735 17.125145 28.969967 17.219104 C 29.032809 17.312452 29.090771 17.408851 29.143851 17.5083 C 29.196932 17.607749 29.245131 17.709639 29.287839 17.81336 C 29.331158 17.91769 29.368985 18.023851 29.401932 18.131232 C 29.434878 18.239223 29.461723 18.348434 29.483687 18.458866 C 29.505652 18.569297 29.522125 18.680949 29.533717 18.792601 C 29.544699 18.904863 29.55019 19.017125 29.55019 19.129997 Z M 29.55019 19.129997 " stroke="#000000" stroke-width="2" stroke-opacity="1" stroke-miterlimit="10"/><path stroke-linecap="round" transform="matrix(6.402439, 0, 0, 6.402439, -17.423754, -17.103632)" fill="none" stroke-linejoin="round" d="M 23.589937 30.229893 C 23.589937 30.346426 23.578955 30.461128 23.555771 30.57522 C 23.533196 30.689312 23.49964 30.799744 23.455101 30.907125 C 23.410562 31.014506 23.356262 31.117006 23.291589 31.213405 C 23.226916 31.309804 23.153702 31.399491 23.071336 31.481857 C 22.98958 31.563613 22.899893 31.636827 22.803494 31.7015 C 22.706485 31.766173 22.604595 31.821083 22.497214 31.865012 C 22.389833 31.909551 22.279401 31.943107 22.165309 31.965682 C 22.051217 31.988866 21.936515 31.999848 21.819982 31.999848 C 21.704059 31.999848 21.588747 31.988866 21.474654 31.965682 C 21.360562 31.943107 21.250131 31.909551 21.14275 31.865012 C 21.035369 31.821083 20.933479 31.766173 20.83647 31.7015 C 20.740071 31.636827 20.650384 31.563613 20.568628 31.481857 C 20.486262 31.399491 20.413047 31.309804 20.348375 31.213405 C 20.283702 31.117006 20.229401 31.014506 20.184863 30.907125 C 20.140324 30.799744 20.106767 30.689312 20.084193 30.57522 C 20.061619 30.461128 20.050026 30.346426 20.050026 30.229893 C 20.050026 30.11397 20.061619 29.998658 20.084193 29.884565 C 20.106767 29.770473 20.140324 29.660042 20.184863 29.552661 C 20.229401 29.44528 20.283702 29.34339 20.348375 29.246381 C 20.413047 29.149982 20.486262 29.060295 20.568628 28.978539 C 20.650384 28.896173 20.740071 28.822958 20.83647 28.758286 C 20.933479 28.693613 21.035369 28.639312 21.14275 28.594774 C 21.250131 28.550235 21.360562 28.516678 21.474654 28.494104 C 21.588747 28.47153 21.704059 28.459937 21.819982 28.459937 C 21.936515 28.459937 22.051217 28.47153 22.165309 28.494104 C 22.279401 28.516678 22.389833 28.550235 22.497214 28.594774 C 22.604595 28.639312 22.706485 28.693613 22.803494 28.758286 C 22.899893 28.822958 22.98958 28.896173 23.071336 28.978539 C 23.153702 29.060295 23.226916 29.149982 23.291589 29.246381 C 23.356262 29.34339 23.410562 29.44528 23.455101 29.552661 C 23.49964 29.660042 23.533196 29.770473 23.555771 29.884565 C 23.578955 29.998658 23.589937 30.11397 23.589937 30.229893 Z M 23.589937 30.229893 " stroke="#000000" stroke-width="2" stroke-opacity="1" stroke-miterlimit="10"/><path stroke-linecap="round" transform="matrix(6.402439, 0, 0, 6.402439, -17.423754, -17.103632)" fill="none" stroke-linejoin="round" d="M 50.360132 40.579953 C 50.360132 40.703197 50.354031 40.826441 50.341828 40.949685 C 50.329626 41.072319 50.311932 41.194343 50.287528 41.315756 C 50.263733 41.43656 50.233227 41.556143 50.19784 41.674506 C 50.161843 41.792259 50.120355 41.908792 50.072766 42.022884 C 50.025786 42.136977 49.973316 42.248018 49.914745 42.35723 C 49.856784 42.465831 49.793331 42.571991 49.724388 42.674491 C 49.656054 42.776992 49.58284 42.876441 49.504135 42.971619 C 49.426039 43.067408 49.343063 43.158316 49.255816 43.245563 C 49.168569 43.33281 49.077051 43.415786 48.981873 43.494492 C 48.886084 43.572587 48.787245 43.645801 48.684745 43.714745 C 48.581635 43.783078 48.476084 43.84653 48.366873 43.905102 C 48.258272 43.963063 48.14662 44.015533 48.032527 44.063123 C 47.918435 44.110102 47.802513 44.15159 47.684149 44.187587 C 47.566397 44.223584 47.446813 44.25348 47.325399 44.277274 C 47.204596 44.301679 47.082572 44.319983 46.959328 44.331575 C 46.836694 44.343777 46.71345 44.349878 46.590206 44.349878 C 46.466352 44.349878 46.343108 44.343777 46.220474 44.331575 C 46.09784 44.319983 45.975816 44.301679 45.854402 44.277274 C 45.733599 44.25348 45.614015 44.223584 45.495652 44.187587 C 45.377289 44.15159 45.261367 44.110102 45.147274 44.063123 C 45.033182 44.015533 44.92153 43.963063 44.812929 43.905102 C 44.703718 43.84653 44.598167 43.783078 44.495667 43.714745 C 44.392557 43.645801 44.293718 43.572587 44.198539 43.494492 C 44.102751 43.415786 44.011233 43.33281 43.923986 43.245563 C 43.836739 43.158316 43.754373 43.067408 43.675667 42.971619 C 43.597572 42.876441 43.523748 42.776992 43.455414 42.674491 C 43.386471 42.571991 43.323628 42.465831 43.265057 42.35723 C 43.207096 42.248018 43.154015 42.136977 43.107036 42.022884 C 43.059447 41.908792 43.017959 41.792259 42.982572 41.674506 C 42.946575 41.556143 42.916679 41.43656 42.892274 41.315756 C 42.86848 41.194343 42.850176 41.072319 42.837974 40.949685 C 42.825771 40.826441 42.82028 40.703197 42.82028 40.579953 C 42.82028 40.456709 42.825771 40.333465 42.837974 40.210221 C 42.850176 40.087587 42.86848 39.965563 42.892274 39.844759 C 42.916679 39.723346 42.946575 39.603762 42.982572 39.485399 C 43.017959 39.367646 43.059447 39.251113 43.107036 39.137021 C 43.154015 39.022929 43.207096 38.911887 43.265057 38.802676 C 43.323628 38.694075 43.386471 38.587914 43.455414 38.485414 C 43.523748 38.382914 43.597572 38.284075 43.675667 38.188286 C 43.754373 38.093107 43.836739 38.00159 43.923986 37.914343 C 44.011233 37.827095 44.102751 37.744119 44.198539 37.666024 C 44.293718 37.587319 44.392557 37.514104 44.495667 37.445161 C 44.598167 37.376828 44.703718 37.313375 44.812929 37.255414 C 44.92153 37.196842 45.033182 37.144372 45.147274 37.096783 C 45.261367 37.049804 45.377289 37.008316 45.495652 36.972319 C 45.614015 36.936322 45.733599 36.906426 45.854402 36.882631 C 45.975816 36.858226 46.09784 36.840533 46.220474 36.828331 C 46.343108 36.816128 46.466352 36.810027 46.590206 36.810027 C 46.71345 36.810027 46.836694 36.816128 46.959328 36.828331 C 47.082572 36.840533 47.204596 36.858226 47.325399 36.882631 C 47.446813 36.906426 47.566397 36.936322 47.684149 36.972319 C 47.802513 37.008316 47.918435 37.049804 48.032527 37.096783 C 48.14662 37.144372 48.258272 37.196842 48.366873 37.255414 C 48.476084 37.313375 48.581635 37.376828 48.684745 37.445161 C 48.787245 37.514104 48.886084 37.587319 48.981873 37.666024 C 49.077051 37.744119 49.168569 37.827095 49.255816 37.914343 C 49.343063 38.00159 49.426039 38.093107 49.504135 38.188286 C 49.58284 38.284075 49.656054 38.382914 49.724388 38.485414 C 49.793331 38.587914 49.856784 38.694075 49.914745 38.802676 C 49.973316 38.911887 50.025786 39.022929 50.072766 39.137021 C 50.120355 39.251113 50.161843 39.367646 50.19784 39.485399 C 50.233227 39.603762 50.263733 39.723346 50.287528 39.844759 C 50.311932 39.965563 50.329626 40.087587 50.341828 40.210221 C 50.354031 40.333465 50.360132 40.456709 50.360132 40.579953 Z M 50.360132 40.579953 " stroke="#000000" stroke-width="2" stroke-opacity="1" stroke-miterlimit="10"/><path stroke-linecap="round" transform="matrix(6.402439, 0, 0, 6.402439, -17.423754, -17.103632)" fill="none" stroke-linejoin="round" d="M 28.569729 45.759864 C 28.569729 45.870295 28.564848 45.980727 28.553866 46.090548 C 28.542884 46.20037 28.527021 46.308971 28.505056 46.417572 C 28.483702 46.525563 28.456857 46.632944 28.425131 46.738495 C 28.392795 46.844045 28.355577 46.947765 28.313479 47.049655 C 28.271381 47.151545 28.224402 47.250995 28.171931 47.348614 C 28.120071 47.446233 28.06333 47.540191 28.002318 47.632319 C 27.940696 47.723837 27.874803 47.812304 27.80525 47.897721 C 27.735086 47.983138 27.661262 48.064893 27.583167 48.142989 C 27.505071 48.221084 27.423315 48.294908 27.337899 48.365072 C 27.252482 48.435236 27.164015 48.500519 27.072497 48.562141 C 26.980369 48.623152 26.8858 48.679894 26.788792 48.732364 C 26.691172 48.784224 26.591723 48.831203 26.489833 48.873301 C 26.387943 48.91601 26.283613 48.952617 26.178062 48.984953 C 26.072512 49.016679 25.965741 49.043524 25.85775 49.065489 C 25.749149 49.086843 25.639937 49.102706 25.530116 49.113688 C 25.420294 49.12467 25.310473 49.130161 25.200041 49.130161 C 25.08961 49.130161 24.979789 49.12467 24.869967 49.113688 C 24.760146 49.102706 24.650934 49.086843 24.542333 49.065489 C 24.434342 49.043524 24.327571 49.016679 24.222021 48.984953 C 24.11586 48.952617 24.01214 48.91601 23.91025 48.873301 C 23.80836 48.831203 23.70891 48.784224 23.611291 48.732364 C 23.514282 48.679894 23.419714 48.623152 23.327586 48.562141 C 23.236068 48.500519 23.147601 48.435236 23.062184 48.365072 C 22.976768 48.294908 22.895012 48.221084 22.816916 48.142989 C 22.738821 48.064893 22.664997 47.983138 22.594833 47.897721 C 22.524669 47.812304 22.459387 47.723837 22.397765 47.632319 C 22.336753 47.540191 22.280012 47.446233 22.228151 47.348614 C 22.175681 47.250995 22.128702 47.151545 22.086604 47.049655 C 22.044506 46.947765 22.007288 46.844045 21.974952 46.738495 C 21.943226 46.632944 21.916381 46.525563 21.895026 46.417572 C 21.873062 46.308971 21.857199 46.20037 21.846217 46.090548 C 21.835235 45.980727 21.829744 45.870295 21.829744 45.759864 C 21.829744 45.649432 21.835235 45.539611 21.846217 45.429789 C 21.857199 45.319968 21.873062 45.210756 21.895026 45.102765 C 21.916381 44.994164 21.943226 44.887393 21.974952 44.781843 C 22.007288 44.676292 22.044506 44.572572 22.086604 44.470072 C 22.128702 44.368182 22.175681 44.268733 22.228151 44.171114 C 22.280012 44.074105 22.336753 43.979536 22.397765 43.888018 C 22.459387 43.79589 22.524669 43.707423 22.594833 43.622006 C 22.664997 43.53659 22.738821 43.454834 22.816916 43.377349 C 22.895012 43.299253 22.976768 43.224819 23.062184 43.154655 C 23.147601 43.085102 23.236068 43.019209 23.327586 42.958197 C 23.419714 42.896575 23.514282 42.839834 23.611291 42.787974 C 23.70891 42.736114 23.80836 42.688524 23.91025 42.646426 C 24.01214 42.604328 24.11586 42.567111 24.222021 42.535384 C 24.327571 42.503048 24.434342 42.476203 24.542333 42.454849 C 24.650934 42.433494 24.760146 42.417021 24.869967 42.406039 C 24.979789 42.395667 25.08961 42.390176 25.200041 42.390176 C 25.310473 42.390176 25.420294 42.395667 25.530116 42.406039 C 25.639937 42.417021 25.749149 42.433494 25.85775 42.454849 C 25.965741 42.476203 26.072512 42.503048 26.178062 42.535384 C 26.283613 42.567111 26.387943 42.604328 26.489833 42.646426 C 26.591723 42.688524 26.691172 42.736114 26.788792 42.787974 C 26.8858 42.839834 26.980369 42.896575 27.072497 42.958197 C 27.164015 43.019209 27.252482 43.085102 27.337899 43.154655 C 27.423315 43.224819 27.505071 43.299253 27.583167 43.377349 C 27.661262 43.454834 27.735086 43.53659 27.80525 43.622006 C 27.874803 43.707423 27.940696 43.79589 28.002318 43.888018 C 28.06333 43.979536 28.120071 44.074105 28.171931 44.171114 C 28.224402 44.268733 28.271381 44.368182 28.313479 44.470072 C 28.355577 44.572572 28.392795 44.676292 28.425131 44.781843 C 28.456857 44.887393 28.483702 44.994164 28.505056 45.102765 C 28.527021 45.210756 28.542884 45.319968 28.553866 45.429789 C 28.564848 45.539611 28.569729 45.649432 28.569729 45.759864 Z M 28.569729 45.759864 " stroke="#000000" stroke-width="2" stroke-opacity="1" stroke-miterlimit="10"/><path stroke-linecap="round" transform="matrix(6.402439, 0, 0, 6.402439, -17.423754, -17.103632)" fill="none" stroke-linejoin="round" d="M 36.62025 34.960146 C 36.62025 35.057155 36.615369 35.153554 36.605607 35.249953 C 36.596456 35.346351 36.581813 35.44214 36.562899 35.537319 C 36.543985 35.632497 36.520801 35.726456 36.492735 35.819194 C 36.46467 35.911932 36.431723 36.00345 36.394506 36.092527 C 36.357289 36.182214 36.316411 36.270072 36.270652 36.355488 C 36.224893 36.440905 36.174863 36.523881 36.121173 36.604417 C 36.067482 36.684953 36.009521 36.763048 35.947899 36.838092 C 35.886887 36.912527 35.821604 36.984521 35.753271 37.052854 C 35.684328 37.121798 35.612944 37.18647 35.537899 37.248092 C 35.462854 37.309715 35.385369 37.367066 35.304223 37.421366 C 35.223688 37.475057 35.140712 37.525087 35.055295 37.570235 C 34.969878 37.615994 34.882021 37.657482 34.792944 37.6947 C 34.703256 37.731917 34.611738 37.764253 34.519 37.792319 C 34.426262 37.820384 34.332304 37.844179 34.237735 37.863093 C 34.142557 37.882006 34.046768 37.896039 33.950369 37.905801 C 33.85336 37.914953 33.756961 37.919834 33.659953 37.919834 C 33.562944 37.919834 33.466545 37.914953 33.370146 37.905801 C 33.273137 37.896039 33.177348 37.882006 33.08278 37.863093 C 32.987601 37.844179 32.893643 37.820384 32.800905 37.792319 C 32.708167 37.764253 32.616649 37.731917 32.526961 37.6947 C 32.437884 37.657482 32.350027 37.615994 32.26461 37.570235 C 32.179194 37.525087 32.096217 37.475057 32.015682 37.421366 C 31.935146 37.367066 31.857051 37.309715 31.782006 37.248092 C 31.706961 37.18647 31.635577 37.121798 31.567244 37.052854 C 31.498301 36.984521 31.433628 36.912527 31.372006 36.838092 C 31.310384 36.763048 31.252423 36.684953 31.198732 36.604417 C 31.145042 36.523881 31.095012 36.440905 31.049253 36.355488 C 31.004104 36.270072 30.962616 36.182214 30.925399 36.092527 C 30.888182 36.00345 30.855845 35.911932 30.82717 35.819194 C 30.799104 35.726456 30.77592 35.632497 30.757006 35.537319 C 30.738092 35.44214 30.72406 35.346351 30.714298 35.249953 C 30.704536 35.153554 30.700265 35.057155 30.700265 34.960146 C 30.700265 34.863137 30.704536 34.766128 30.714298 34.669729 C 30.72406 34.57333 30.738092 34.477542 30.757006 34.382363 C 30.77592 34.287185 30.799104 34.193226 30.82717 34.100488 C 30.855845 34.00775 30.888182 33.916842 30.925399 33.827155 C 30.962616 33.737467 31.004104 33.65022 31.049253 33.564804 C 31.095012 33.479387 31.145042 33.396411 31.198732 33.315265 C 31.252423 33.234729 31.310384 33.157244 31.372006 33.082199 C 31.433628 33.007155 31.498301 32.935771 31.567244 32.866827 C 31.635577 32.798494 31.706961 32.733211 31.782006 32.671589 C 31.857051 32.610577 31.935146 32.552616 32.015682 32.498926 C 32.096217 32.445235 32.179194 32.395205 32.26461 32.349446 C 32.350027 32.303688 32.437884 32.262199 32.526961 32.225592 C 32.616649 32.188375 32.708167 32.155429 32.800905 32.127363 C 32.893643 32.099298 32.987601 32.075503 33.08278 32.056589 C 33.177348 32.037676 33.273137 32.023643 33.370146 32.014491 C 33.466545 32.004729 33.562944 31.999848 33.659953 31.999848 C 33.756961 31.999848 33.85336 32.004729 33.950369 32.014491 C 34.046768 32.023643 34.142557 32.037676 34.237735 32.056589 C 34.332304 32.075503 34.426262 32.099298 34.519 32.127363 C 34.611738 32.155429 34.703256 32.188375 34.792944 32.225592 C 34.882021 32.262199 34.969878 32.303688 35.055295 32.349446 C 35.140712 32.395205 35.223688 32.445235 35.304223 32.498926 C 35.385369 32.552616 35.462854 32.610577 35.537899 32.671589 C 35.612944 32.733211 35.684328 32.798494 35.753271 32.866827 C 35.821604 32.935771 35.886887 33.007155 35.947899 33.082199 C 36.009521 33.157244 36.067482 33.234729 36.121173 33.315265 C 36.174863 33.396411 36.224893 33.479387 36.270652 33.564804 C 36.316411 33.65022 36.357289 33.737467 36.394506 33.827155 C 36.431723 33.916842 36.46467 34.00775 36.492735 34.100488 C 36.520801 34.193226 36.543985 34.287185 36.562899 34.382363 C 36.581813 34.477542 36.596456 34.57333 36.605607 34.669729 C 36.615369 34.766128 36.62025 34.863137 36.62025 34.960146 Z M 36.62025 34.960146 " stroke="#000000" stroke-width="2" stroke-opacity="1" stroke-miterlimit="10"/></svg>