<svg xmlns="http://www.w3.org/2000/svg" xmlns:xlink="http://www.w3.org/1999/xlink" width="500" zoomAndPan="magnify" viewBox="0 0 375 374.999991" height="500" preserveAspectRatio="xMidYMid meet" version="1.0"><path fill="#000000" d="M 194.75 247.605469 C 194.039062 248.148438 193.289062 248.636719 192.503906 249.066406 C 190.957031 249.792969 189.671875 252.785156 187.988281 250.976562 C 186.304688 249.167969 189.609375 247.992188 190.265625 246.234375 C 190.992188 244.242188 193.816406 242.980469 195.609375 243.914062 C 197.574219 244.914062 195.0625 246.34375 194.75 247.605469 Z M 194.75 247.605469 " fill-opacity="1" fill-rule="nonzero"/><path fill="#000000" d="M 280.957031 212.316406 C 278.703125 217.613281 274.4375 218.523438 270.492188 221.289062 C 271.511719 214.644531 276.230469 214.332031 280.957031 212.316406 Z M 280.957031 212.316406 " fill-opacity="1" fill-rule="nonzero"/><path fill="#000000" d="M 314.765625 186.417969 C 313.875 184.089844 312.015625 182.699219 313.898438 180.816406 C 316.214844 178.511719 318.953125 179.136719 322.058594 179.4375 C 320.527344 182.972656 316.539062 182.871094 314.765625 186.417969 Z M 314.765625 186.417969 " fill-opacity="1" fill-rule="nonzero"/><path fill="#000000" d="M 108.230469 112.265625 C 122.722656 102.230469 138.078125 93.886719 155.382812 89.65625 C 138.679688 95.148438 123.335938 103.417969 108.230469 112.265625 Z M 108.230469 112.265625 " fill-opacity="1" fill-rule="nonzero"/><path fill="#000000" d="M 283.800781 121.171875 C 290.769531 114.785156 294.742188 103.03125 283.21875 88.679688 C 290.375 92.753906 293.101562 102.15625 292.125 109.101562 C 291.359375 114.519531 288.625 118.640625 283.800781 121.171875 Z M 283.800781 121.171875 " fill-opacity="1" fill-rule="nonzero"/><path fill="#000000" d="M 282.4375 135.074219 C 288.964844 128.007812 295.101562 120.683594 297.710938 111.085938 C 297.433594 122.179688 290.207031 128.800781 282.4375 135.074219 Z M 282.4375 135.074219 " fill-opacity="1" fill-rule="nonzero"/><path fill="#000000" d="M 64.339844 154.351562 C 61.816406 148.730469 63.460938 144.03125 69.5625 139.464844 C 66.820312 144.074219 63.734375 148.570312 64.339844 154.351562 Z M 64.339844 154.351562 " fill-opacity="1" fill-rule="nonzero"/><path fill="#000000" d="M 306.375 112.71875 C 306.375 113.121094 306.429688 113.523438 306.457031 113.929688 L 305.4375 115.183594 C 303.757812 113.726562 305.042969 111.945312 304.933594 110.320312 L 305.859375 110.28125 C 306.0625 111.09375 306.207031 111.902344 306.375 112.71875 Z M 306.375 112.71875 " fill-opacity="1" fill-rule="nonzero"/><path fill="#000000" d="M 124.851562 177.039062 C 126.113281 176.980469 127.40625 176.375 128.828125 177.191406 C 127.601562 177.929688 126.285156 178.171875 124.875 177.917969 Z M 124.851562 177.039062 " fill-opacity="1" fill-rule="nonzero"/><path fill="#000000" d="M 304.933594 110.320312 C 304.792969 109.4375 303.957031 107.992188 305.238281 107.898438 C 306.523438 107.804688 305.808594 109.402344 305.859375 110.28125 Z M 304.933594 110.320312 " fill-opacity="1" fill-rule="nonzero"/><path fill="#000000" d="M 52.03125 153.441406 C 53.144531 152.945312 52.6875 150.945312 54.371094 150.984375 C 54.714844 152.871094 53.691406 153.449219 52.03125 153.441406 Z M 52.03125 153.441406 " fill-opacity="1" fill-rule="nonzero"/><path fill="#000000" d="M 102.152344 184.996094 L 101.210938 186.730469 C 101.058594 186.542969 100.730469 186.308594 100.769531 186.183594 C 100.847656 185.84375 101.023438 185.558594 101.292969 185.335938 C 101.566406 185.113281 101.875 185 102.226562 184.988281 Z M 102.152344 184.996094 " fill-opacity="1" fill-rule="nonzero"/><path fill="#000000" d="M 53.320312 161.332031 C 53.371094 160.523438 53.414062 159.40625 54.40625 159.554688 C 55.21875 159.671875 54.617188 160.664062 54.566406 161.273438 Z M 53.320312 161.332031 " fill-opacity="1" fill-rule="nonzero"/><path fill="#000000" d="M 50.105469 165.015625 C 48.347656 164.929688 48.796875 164.097656 49.492188 163.1875 C 50.878906 163.40625 50.90625 164.070312 50.105469 165.015625 Z M 50.105469 165.015625 " fill-opacity="1" fill-rule="nonzero"/><path fill="#000000" d="M 102.234375 184.988281 C 102.015625 184.929688 101.597656 184.863281 101.605469 184.804688 C 101.605469 184.398438 101.707031 184.398438 101.855469 184.804688 C 101.855469 184.898438 102.035156 184.957031 102.140625 185.03125 Z M 102.234375 184.988281 " fill-opacity="1" fill-rule="nonzero"/><path fill="#000000" d="M 48.878906 158.949219 C 48.019531 158.519531 48.351562 158.085938 48.878906 157.648438 L 49.609375 158.292969 Z M 48.878906 158.949219 " fill-opacity="1" fill-rule="nonzero"/><path fill="#000000" d="M 86.902344 183.761719 C 87.828125 183.660156 87.828125 184.339844 87.910156 184.953125 L 86.917969 185.066406 L 87.003906 183.804688 Z M 86.902344 183.761719 " fill-opacity="1" fill-rule="nonzero"/><path fill="#000000" d="M 87.003906 183.804688 L 87.398438 183.25 C 87.441406 183.367188 87.476562 183.484375 87.515625 183.601562 L 86.910156 183.769531 Z M 87.003906 183.804688 " fill-opacity="1" fill-rule="nonzero"/><path fill="#000000" d="M 104.253906 193.578125 C 103.808594 194.15625 103.371094 194.402344 102.933594 193.578125 C 103.378906 192.863281 103.824219 192.566406 104.253906 193.578125 Z M 104.253906 193.578125 " fill-opacity="1" fill-rule="nonzero"/><path fill="#000000" d="M 278.667969 246.046875 C 293.941406 237.917969 304.984375 224.894531 317.367188 213.425781 C 306.558594 226.773438 295.472656 239.789062 278.667969 246.046875 Z M 278.667969 246.046875 " fill-opacity="1" fill-rule="nonzero"/><path fill="#000000" d="M 169.175781 297.925781 C 170.316406 295.738281 172.613281 296.226562 174.429688 295.628906 C 182.277344 293.03125 190.15625 290.488281 198.019531 287.925781 C 199.476562 287.460938 200.933594 287.042969 202.394531 286.605469 C 202.511719 286.933594 202.628906 287.269531 202.75 287.605469 C 197.523438 289.714844 192.34375 291.984375 187.0625 293.910156 C 181.78125 295.832031 176.230469 297.511719 170.855469 299.421875 C 168.835938 300.152344 168.953125 299.183594 169.230469 297.816406 Z M 169.175781 297.925781 " fill-opacity="1" fill-rule="nonzero"/><path fill="#000000" d="M 164.378906 294.230469 L 162.472656 294.785156 C 161.746094 294.695312 160.613281 294.25 160.621094 295.417969 C 160.628906 296.585938 161.78125 296.183594 162.554688 296.148438 L 166.582031 297.320312 C 161.714844 298.203125 156.757812 297.949219 151.308594 299.152344 C 152.421875 296.863281 154.285156 297.292969 155.40625 296.492188 C 156.136719 296.382812 157.363281 296.585938 157.039062 295.351562 C 156.859375 294.621094 155.875 295.054688 155.238281 295.222656 L 147.507812 296.269531 C 152.796875 292.550781 158.675781 292.542969 164.640625 293.085938 Z M 164.378906 294.230469 " fill-opacity="1" fill-rule="nonzero"/><path fill="#000000" d="M 291.527344 248.808594 C 295.238281 245.796875 298.710938 242.425781 302.402344 239.328125 C 300.089844 243.953125 295.953125 246.527344 291.527344 248.808594 Z M 291.527344 248.808594 " fill-opacity="1" fill-rule="nonzero"/><path fill="#000000" d="M 258.265625 263.820312 L 270.933594 256.269531 C 269.34375 259.292969 263.269531 263.03125 258.265625 263.820312 Z M 258.265625 263.820312 " fill-opacity="1" fill-rule="nonzero"/><path fill="#000000" d="M 272.511719 255.359375 L 283.078125 247.039062 C 280.789062 251.222656 276.769531 253.414062 273.335938 256.269531 Z M 272.511719 255.359375 " fill-opacity="1" fill-rule="nonzero"/><path fill="#000000" d="M 295.121094 227.453125 C 292.800781 232.035156 288.441406 233.855469 284.121094 235.761719 C 287.828125 232.996094 291.707031 230.625 295.121094 227.453125 Z M 295.121094 227.453125 " fill-opacity="1" fill-rule="nonzero"/><path fill="#000000" d="M 151.628906 279.453125 C 147.085938 280.636719 142.464844 281.273438 137.769531 281.355469 C 137.726562 280.996094 137.675781 280.625 137.632812 280.28125 L 151.585938 278.496094 Z M 151.628906 279.453125 " fill-opacity="1" fill-rule="nonzero"/><path fill="#000000" d="M 213.285156 283.703125 C 209.949219 285.84375 206.300781 286.988281 202.34375 287.140625 C 206.320312 284.601562 209.5625 283.265625 213.285156 283.703125 Z M 213.285156 283.703125 " fill-opacity="1" fill-rule="nonzero"/><path fill="#000000" d="M 175.238281 273.105469 C 173.8125 274.03125 172.285156 274.734375 170.660156 275.222656 C 169.03125 275.707031 167.367188 275.957031 165.667969 275.964844 C 168.621094 274.21875 171.8125 273.265625 175.238281 273.105469 Z M 175.238281 273.105469 " fill-opacity="1" fill-rule="nonzero"/><path fill="#000000" d="M 124.867188 292.390625 L 120.015625 293.230469 L 120.105469 293.230469 C 118.644531 292.304688 116.820312 293.785156 114.414062 291.910156 L 124.925781 291.382812 C 124.902344 291.710938 124.890625 292.054688 124.867188 292.390625 Z M 124.867188 292.390625 " fill-opacity="1" fill-rule="nonzero"/><path fill="#000000" d="M 157.078125 277.351562 L 164.734375 275.519531 C 162.605469 277.867188 159.8125 277.976562 157.097656 278.335938 Z M 157.078125 277.351562 " fill-opacity="1" fill-rule="nonzero"/><path fill="#000000" d="M 130.367188 280.910156 C 132.554688 280.605469 134.742188 280.179688 137.046875 280.976562 C 134.902344 281.917969 132.667969 282.226562 130.34375 281.910156 Z M 130.367188 280.910156 " fill-opacity="1" fill-rule="nonzero"/><path fill="#000000" d="M 137.800781 284.9375 C 135.964844 285.46875 134.097656 285.648438 132.199219 285.476562 C 132.199219 285.125 132.132812 284.746094 132.09375 284.425781 L 137.632812 283.953125 Z M 137.800781 284.9375 " fill-opacity="1" fill-rule="nonzero"/><path fill="#000000" d="M 201.375 293.9375 C 203.167969 293.28125 204.179688 291.171875 206.757812 291.152344 C 205.371094 293.28125 203.898438 294.621094 201.476562 294.550781 C 201.445312 294.347656 201.417969 294.140625 201.375 293.9375 Z M 201.375 293.9375 " fill-opacity="1" fill-rule="nonzero"/><path fill="#000000" d="M 130.34375 291.164062 L 136.230469 290.566406 C 133.792969 292.703125 131.933594 292.164062 130.214844 292.214844 Z M 130.34375 291.164062 " fill-opacity="1" fill-rule="nonzero"/><path fill="#000000" d="M 126.683594 285.132812 C 128.273438 284.667969 129.871094 284.242188 131.925781 285.054688 C 130.140625 286.4375 128.28125 285.972656 126.640625 286.160156 Z M 126.683594 285.132812 " fill-opacity="1" fill-rule="nonzero"/><path fill="#000000" d="M 144.925781 295.351562 C 144.386719 294.898438 143.167969 295.878906 143.074219 294.476562 C 143.984375 293.609375 145.304688 293.390625 145.988281 294.179688 C 146.675781 294.964844 145.261719 294.886719 144.925781 295.351562 Z M 144.925781 295.351562 " fill-opacity="1" fill-rule="nonzero"/><path fill="#000000" d="M 145.550781 282.851562 L 149.777344 282.121094 L 149.777344 283.089844 C 148.441406 283.800781 147.027344 284.046875 145.53125 283.820312 Z M 145.550781 282.851562 " fill-opacity="1" fill-rule="nonzero"/><path fill="#000000" d="M 122.429688 286.308594 L 118.785156 286.535156 C 118.785156 286.242188 118.785156 285.941406 118.785156 285.652344 L 122.480469 285.292969 C 122.472656 285.628906 122.453125 285.964844 122.429688 286.308594 Z M 122.429688 286.308594 " fill-opacity="1" fill-rule="nonzero"/><path fill="#000000" d="M 153.984375 277.890625 L 157.078125 277.351562 L 157.078125 278.335938 C 156.140625 278.917969 155.128906 279.132812 154.035156 278.976562 Z M 153.984375 277.890625 " fill-opacity="1" fill-rule="nonzero"/><path fill="#000000" d="M 183.234375 266.527344 C 184.066406 265.351562 185.027344 264.820312 186.3125 265.914062 C 185.53125 267.335938 184.597656 268.015625 183.234375 266.527344 Z M 183.234375 266.527344 " fill-opacity="1" fill-rule="nonzero"/><path fill="#000000" d="M 152.847656 282.609375 C 152.398438 282.914062 151.910156 283.109375 151.378906 283.199219 C 150.847656 283.289062 150.320312 283.265625 149.796875 283.128906 L 149.796875 282.15625 C 150.785156 281.671875 151.820312 281.542969 152.898438 281.769531 C 152.890625 282.046875 152.847656 282.332031 152.847656 282.609375 Z M 152.847656 282.609375 " fill-opacity="1" fill-rule="nonzero"/><path fill="#000000" d="M 143.679688 297.519531 L 144.96875 296.789062 C 145.625 296.914062 146.667969 297.015625 145.859375 297.917969 C 145.40625 298.460938 144.136719 299.125 143.679688 297.519531 Z M 143.679688 297.519531 " fill-opacity="1" fill-rule="nonzero"/><path fill="#000000" d="M 118.191406 289.800781 C 117.574219 290.234375 116.890625 290.46875 116.136719 290.503906 C 115.382812 290.542969 114.679688 290.375 114.019531 290.007812 C 114.308594 289.765625 114.628906 289.574219 114.980469 289.4375 C 115.332031 289.300781 115.695312 289.222656 116.074219 289.203125 C 116.449219 289.183594 116.820312 289.226562 117.183594 289.328125 C 117.542969 289.429688 117.882812 289.589844 118.191406 289.800781 Z M 118.191406 289.800781 " fill-opacity="1" fill-rule="nonzero"/><path fill="#000000" d="M 138.855469 283.871094 L 141.511719 283.367188 L 141.285156 284.46875 L 138.804688 284.84375 C 138.828125 284.492188 138.84375 284.171875 138.855469 283.871094 Z M 138.855469 283.871094 " fill-opacity="1" fill-rule="nonzero"/><path fill="#000000" d="M 154.058594 278.976562 L 151.628906 279.453125 C 151.628906 279.128906 151.628906 278.808594 151.628906 278.496094 L 154 277.890625 C 154.007812 278.253906 154.035156 278.613281 154.058594 278.976562 Z M 154.058594 278.976562 " fill-opacity="1" fill-rule="nonzero"/><path fill="#000000" d="M 118.792969 294.300781 C 119.234375 293.960938 120.25 294.300781 120.105469 293.222656 L 120.015625 293.222656 C 120.453125 294.566406 120.941406 295.949219 118.558594 295.285156 Z M 118.792969 294.300781 " fill-opacity="1" fill-rule="nonzero"/><path fill="#000000" d="M 145.550781 283.871094 C 144.714844 284.132812 143.363281 284.90625 143.269531 283.644531 C 143.144531 282.492188 144.683594 282.917969 145.550781 282.917969 Z M 145.550781 283.871094 " fill-opacity="1" fill-rule="nonzero"/><path fill="#000000" d="M 112.714844 285.828125 C 113.570312 285.703125 114.96875 284.980469 115.070312 286.140625 C 115.171875 287.300781 113.671875 286.871094 112.800781 286.871094 Z M 112.714844 285.828125 " fill-opacity="1" fill-rule="nonzero"/><path fill="#000000" d="M 139.453125 290.625 C 140.183594 290.480469 141.292969 290.019531 141.320312 291.027344 C 141.351562 292.035156 140.140625 291.65625 139.394531 291.667969 Z M 139.453125 290.625 " fill-opacity="1" fill-rule="nonzero"/><path fill="#000000" d="M 150.109375 299.085938 L 150.183594 298.6875 L 150.703125 298.796875 C 150.625 298.894531 150.539062 298.980469 150.441406 299.058594 C 150.351562 299.109375 150.21875 299.078125 150.109375 299.085938 Z M 150.109375 299.085938 " fill-opacity="1" fill-rule="nonzero"/><path fill="#000000" d="M 139.394531 291.667969 L 137.632812 291.597656 C 137.574219 291.289062 137.507812 290.976562 137.441406 290.667969 L 139.453125 290.625 Z M 139.394531 291.667969 " fill-opacity="1" fill-rule="nonzero"/><path fill="#000000" d="M 143.144531 294.46875 C 142.890625 295.804688 142.132812 295.644531 141.25 295.117188 C 141.460938 293.683594 142.25 293.921875 143.144531 294.46875 Z M 143.144531 294.46875 " fill-opacity="1" fill-rule="nonzero"/><path fill="#000000" d="M 124.671875 285.191406 L 126.683594 285.132812 L 126.640625 286.160156 L 124.867188 286.207031 Z M 124.671875 285.191406 " fill-opacity="1" fill-rule="nonzero"/><path fill="#000000" d="M 129.375 292.253906 L 127.304688 292.253906 L 127.1875 291.332031 L 129.125 291.238281 C 129.207031 291.558594 129.292969 291.894531 129.375 292.253906 Z M 129.375 292.253906 " fill-opacity="1" fill-rule="nonzero"/><path fill="#000000" d="M 113.40625 283.347656 C 113.910156 283.433594 114.707031 283.246094 114.378906 284.183594 C 114.210938 284.679688 113.734375 284.628906 113.328125 284.367188 C 113.351562 284.023438 113.378906 283.6875 113.40625 283.347656 Z M 113.40625 283.347656 " fill-opacity="1" fill-rule="nonzero"/><path fill="#000000" d="M 181.972656 266.519531 C 182.394531 266.058594 182.808594 265.5625 183.226562 266.519531 L 182.589844 267.25 Z M 181.972656 266.519531 " fill-opacity="1" fill-rule="nonzero"/><path fill="#000000" d="M 141.511719 283.339844 C 141.839844 283.507812 142.4375 283.675781 142.429688 283.835938 C 142.429688 284.566406 141.863281 284.566406 141.285156 284.441406 Z M 141.511719 283.339844 " fill-opacity="1" fill-rule="nonzero"/><path fill="#000000" d="M 138.804688 284.8125 L 137.800781 284.9375 C 137.742188 284.609375 137.691406 284.28125 137.632812 283.953125 L 138.855469 283.84375 C 138.84375 284.171875 138.828125 284.492188 138.804688 284.8125 Z M 138.804688 284.8125 " fill-opacity="1" fill-rule="nonzero"/><path fill="#000000" d="M 118.785156 286.535156 L 117.472656 286.695312 C 117.507812 286.335938 117.535156 285.964844 117.574219 285.636719 L 118.792969 285.636719 C 118.792969 285.941406 118.785156 286.242188 118.785156 286.535156 Z M 118.785156 286.535156 " fill-opacity="1" fill-rule="nonzero"/><path fill="#000000" d="M 169.199219 297.816406 L 168.542969 297.527344 L 168.953125 297.300781 C 169.023438 297.503906 169.105469 297.707031 169.175781 297.917969 Z M 169.199219 297.816406 " fill-opacity="1" fill-rule="nonzero"/><path fill="#000000" d="M 164.640625 293.085938 L 165.667969 293.230469 L 165.605469 294.199219 L 164.378906 294.199219 Z M 164.640625 293.085938 " fill-opacity="1" fill-rule="nonzero"/><path fill="#000000" d="M 165.667969 293.230469 C 165.960938 293.464844 166.515625 293.71875 166.5 293.960938 C 166.5 294.519531 165.976562 294.339844 165.605469 294.230469 Z M 165.667969 293.230469 " fill-opacity="1" fill-rule="nonzero"/><path fill="#000000" d="M 161.351562 284.90625 C 160.882812 285.03125 160.191406 285.511719 160.183594 284.578125 C 160.183594 283.777344 160.957031 284.082031 161.453125 284.054688 Z M 161.351562 284.90625 " fill-opacity="1" fill-rule="nonzero"/><path fill="#000000" d="M 124.925781 291.378906 L 126.261719 291.289062 L 126.085938 292.296875 L 124.867188 292.390625 C 124.890625 292.054688 124.902344 291.710938 124.925781 291.378906 Z M 124.925781 291.378906 " fill-opacity="1" fill-rule="nonzero"/><path fill="#000000" d="M 127.304688 292.230469 L 126.085938 292.296875 L 126.261719 291.289062 L 127.195312 291.289062 C 127.222656 291.609375 127.257812 291.925781 127.304688 292.230469 Z M 127.304688 292.230469 " fill-opacity="1" fill-rule="nonzero"/><path fill="#000000" d="M 123.65625 286.191406 L 122.429688 286.308594 C 122.429688 285.964844 122.472656 285.628906 122.488281 285.292969 L 123.773438 285.226562 C 123.714844 285.550781 123.714844 285.871094 123.65625 286.191406 Z M 123.65625 286.191406 " fill-opacity="1" fill-rule="nonzero"/><path fill="#000000" d="M 118.550781 295.292969 L 117.484375 295.226562 L 117.574219 294.308594 L 118.792969 294.308594 Z M 118.550781 295.292969 " fill-opacity="1" fill-rule="nonzero"/><path fill="#000000" d="M 117.484375 295.226562 L 116.097656 295.28125 L 116.355469 294.332031 L 117.574219 294.332031 Z M 117.484375 295.226562 " fill-opacity="1" fill-rule="nonzero"/><path fill="#000000" d="M 119.703125 289.496094 L 119.703125 289.933594 C 119.496094 289.882812 119.296875 289.808594 119.105469 289.714844 C 119.039062 289.675781 119.105469 289.457031 119.105469 289.320312 Z M 119.703125 289.496094 " fill-opacity="1" fill-rule="nonzero"/><path fill="#000000" d="M 116.097656 295.28125 C 115.855469 295.363281 115.613281 295.363281 115.371094 295.28125 C 115.296875 294.921875 115.230469 294.550781 115.164062 294.214844 L 116.375 294.332031 Z M 116.097656 295.28125 " fill-opacity="1" fill-rule="nonzero"/><path fill="#000000" d="M 130.214844 292.203125 L 129.375 292.253906 C 129.292969 291.902344 129.207031 291.558594 129.125 291.214844 L 130.34375 291.152344 Z M 130.214844 292.203125 " fill-opacity="1" fill-rule="nonzero"/><path fill="#000000" d="M 123.773438 285.226562 L 124.671875 285.191406 L 124.867188 286.207031 L 123.65625 286.207031 C 123.714844 285.871094 123.714844 285.550781 123.773438 285.226562 Z M 123.773438 285.226562 " fill-opacity="1" fill-rule="nonzero"/><path fill="#000000" d="M 137.632812 291.597656 C 137.199219 291.707031 136.617188 292.207031 136.441406 291.398438 C 136.265625 290.589844 136.9375 290.667969 137.441406 290.667969 C 137.507812 290.976562 137.574219 291.289062 137.632812 291.597656 Z M 137.632812 291.597656 " fill-opacity="1" fill-rule="nonzero"/><path fill="#000000" d="M 117.472656 286.695312 C 116.980469 286.695312 116.289062 286.824219 116.363281 286.046875 C 116.433594 285.265625 117.089844 285.5625 117.574219 285.636719 C 117.535156 285.988281 117.507812 286.335938 117.472656 286.695312 Z M 117.472656 286.695312 " fill-opacity="1" fill-rule="nonzero"/><path fill="#000000" d="M 255.238281 185.839844 C 257.265625 183.972656 259.554688 182.515625 262.101562 181.464844 C 263.1875 181.027344 264.371094 180.457031 265.171875 181.632812 C 266.085938 182.972656 264.757812 183.710938 263.925781 184.347656 C 261.800781 186.035156 259.457031 187.324219 256.894531 188.210938 C 255.902344 188.53125 254.640625 189.515625 253.917969 188.117188 C 253.355469 186.992188 254.726562 186.460938 255.238281 185.839844 Z M 255.238281 185.839844 " fill-opacity="1" fill-rule="nonzero"/><path fill="#000000" d="M 220.988281 194.039062 C 223.691406 192.238281 226.09375 189.78125 229.667969 189.789062 C 230.484375 189.789062 231.46875 189.554688 231.765625 190.726562 C 231.828125 190.9375 231.847656 191.148438 231.824219 191.367188 C 231.800781 191.582031 231.738281 191.785156 231.632812 191.976562 C 231.527344 192.167969 231.390625 192.332031 231.21875 192.46875 C 231.050781 192.605469 230.859375 192.703125 230.652344 192.761719 C 227.734375 193.972656 224.851562 195.171875 221.898438 196.269531 C 221.125 196.5625 220.054688 196.6875 219.769531 195.542969 C 219.59375 194.8125 220.34375 194.351562 220.988281 194.039062 Z M 220.988281 194.039062 " fill-opacity="1" fill-rule="nonzero"/><path fill="#000000" d="M 281.644531 170.320312 C 281.125 170.902344 280.527344 171.390625 279.847656 171.777344 C 279.503906 171.972656 279.136719 172.097656 278.746094 172.15625 C 278.355469 172.214844 277.96875 172.203125 277.582031 172.117188 C 277.199219 172.03125 276.839844 171.882812 276.511719 171.664062 C 276.179688 171.449219 275.898438 171.179688 275.667969 170.859375 C 274.648438 169.253906 276.617188 168.847656 277.59375 168.25 C 278.917969 167.417969 280.304688 166.71875 281.757812 166.15625 C 282.707031 165.796875 283.984375 164.617188 284.785156 165.941406 C 285.589844 167.269531 283.933594 167.808594 283.328125 168.664062 C 282.796875 169.246094 282.234375 169.800781 281.644531 170.320312 Z M 281.644531 170.320312 " fill-opacity="1" fill-rule="nonzero"/><path fill="#000000" d="M 159.886719 219.683594 C 163.882812 213.507812 169.710938 212.808594 174.65625 210.589844 C 175.339844 210.28125 176.113281 210.378906 176.382812 211.203125 C 176.535156 211.761719 176.425781 212.269531 176.0625 212.71875 C 171.410156 215.832031 166.539062 218.4375 159.886719 219.683594 Z M 159.886719 219.683594 " fill-opacity="1" fill-rule="nonzero"/><path fill="#000000" d="M 97.003906 231.429688 C 97.777344 229.65625 95.742188 227.78125 97.566406 226.214844 C 98.15625 225.703125 99.265625 225.046875 99.753906 226.007812 C 100.195312 226.832031 100.394531 227.707031 100.351562 228.640625 C 100.3125 229.570312 100.039062 230.429688 99.527344 231.210938 C 99.023438 231.960938 98.0625 231.792969 97.003906 231.429688 Z M 97.003906 231.429688 " fill-opacity="1" fill-rule="nonzero"/><path fill="#000000" d="M 144.910156 215.308594 C 143.65625 216.160156 142.378906 217.082031 140.773438 216.703125 C 140.46875 216.101562 140.433594 215.488281 140.664062 214.855469 C 141.984375 212.917969 143.496094 214.359375 144.933594 214.8125 Z M 144.910156 215.308594 " fill-opacity="1" fill-rule="nonzero"/><path fill="#000000" d="M 158.375 219.203125 C 157.695312 219.203125 156.558594 219.933594 156.582031 218.605469 C 156.582031 218.050781 157.660156 218.074219 158.308594 218.414062 C 158.308594 218.679688 158.332031 218.941406 158.375 219.203125 Z M 158.375 219.203125 " fill-opacity="1" fill-rule="nonzero"/><path fill="#000000" d="M 155.648438 219.253906 L 154.394531 219.195312 C 154.394531 218.949219 154.394531 218.511719 154.464844 218.46875 C 154.824219 218.398438 155.183594 218.398438 155.546875 218.46875 C 155.609375 218.503906 155.605469 218.90625 155.648438 219.253906 Z M 155.648438 219.253906 " fill-opacity="1" fill-rule="nonzero"/><path fill="#000000" d="M 144.933594 214.789062 L 145.582031 214.738281 L 144.910156 215.28125 Z M 144.933594 214.789062 " fill-opacity="1" fill-rule="nonzero"/><path fill="#000000" d="M 158.308594 218.414062 C 158.675781 218.414062 159.34375 218.335938 159.367188 218.414062 C 159.578125 219.296875 158.894531 219.144531 158.375 219.203125 C 158.332031 218.941406 158.308594 218.679688 158.308594 218.414062 Z M 158.308594 218.414062 " fill-opacity="1" fill-rule="nonzero"/><path fill="#000000" d="M 135.261719 303.566406 C 134.832031 304.777344 134.378906 304.132812 133.925781 303.566406 C 134.363281 302.835938 134.808594 303.15625 135.261719 303.566406 Z M 135.261719 303.566406 " fill-opacity="1" fill-rule="nonzero"/><path fill="#000000" d="M 104.195312 276.214844 L 106.632812 276.214844 C 107.558594 276.613281 109.074219 276.820312 107.246094 278.109375 C 106.164062 277.261719 104.121094 279.234375 103.597656 276.855469 Z M 104.195312 276.214844 " fill-opacity="1" fill-rule="nonzero"/><path fill="#000000" d="M 292.933594 149.832031 C 292.933594 149.765625 292.933594 149.714844 292.96875 149.648438 C 292.914062 149.644531 292.859375 149.644531 292.800781 149.648438 L 292.800781 149.699219 Z M 292.933594 149.832031 " fill-opacity="1" fill-rule="nonzero"/><path fill="#000000" d="M 333.816406 166.578125 C 331.976562 165.117188 329.863281 164.339844 327.871094 163.265625 C 327.195312 163.171875 326.15625 163.316406 325.894531 162.929688 C 324.289062 160.589844 324.347656 160.554688 321.578125 161.660156 C 325.296875 157.007812 325.296875 157.007812 328.484375 161.238281 C 331.863281 156.039062 330.25 148.839844 324.945312 146.730469 C 323.386719 146.105469 323.023438 145.007812 323.679688 144.382812 C 326.523438 141.707031 320.476562 136.578125 326.390625 134.820312 C 326.625 134.753906 326.523438 132.910156 326.265625 131.976562 C 325.898438 130.546875 325.257812 129.25 324.351562 128.085938 C 323.445312 126.921875 322.347656 125.984375 321.050781 125.273438 C 322.007812 126.753906 322.65625 128.363281 323 130.09375 C 323.570312 133.84375 321.933594 135.15625 318.148438 136.214844 C 315.027344 137.089844 313.640625 137.152344 313.472656 133.617188 C 313.414062 132.464844 312.3125 132.316406 311.519531 132.59375 C 309.234375 133.40625 309.433594 132.113281 309.828125 130.707031 C 310.519531 128.210938 311.175781 125.148438 313.246094 123.945312 C 316.699219 121.9375 315.878906 120.238281 315.355469 116.875 C 314.226562 109.625 312.984375 102.769531 309.558594 96.03125 C 303.722656 84.519531 294.816406 76.929688 283 72.550781 C 272.976562 68.839844 262.335938 68.351562 251.839844 67.039062 C 230.207031 64.324219 209.011719 68.300781 187.726562 70.574219 C 173.488281 72.097656 159.871094 76.652344 146.253906 81.101562 C 120.871094 89.496094 96.992188 101.019531 74.625 115.667969 C 68.324219 119.757812 61.890625 124.132812 56.894531 129.664062 C 47.960938 139.515625 41.746094 151.164062 39.628906 164.566406 C 37.515625 177.964844 39.769531 190.414062 47.742188 201.550781 C 48.628906 202.800781 48.625 203.0625 47.355469 203.566406 C 46.246094 204.003906 46.304688 205.117188 45.960938 206.046875 C 44.503906 209.96875 48.878906 213.9375 45.851562 217.847656 C 45.777344 217.941406 46.027344 218.460938 46.230469 218.578125 C 50.214844 220.523438 51.292969 226.367188 56.835938 226.324219 C 59.023438 226.324219 59.230469 227.261719 58.636719 229.683594 C 57.222656 235.445312 57.339844 241.269531 61.890625 246.050781 C 64.742188 249.042969 67.1875 252.1875 63.453125 256.226562 C 63.726562 255.847656 64.085938 255.578125 64.53125 255.425781 C 64.355469 255.589844 64.214844 255.78125 64.113281 256 C 64.011719 256.21875 63.953125 256.445312 63.941406 256.6875 C 63.929688 256.929688 63.964844 257.164062 64.046875 257.390625 C 64.125 257.617188 64.246094 257.820312 64.40625 258 L 67.382812 261.332031 L 67.046875 262.0625 L 67.046875 262.121094 C 67.425781 262.148438 67.800781 262.199219 68.171875 262.273438 L 68.492188 262.640625 L 69.082031 262.515625 C 71.386719 263.246094 72.730469 265.046875 73.144531 267.78125 C 75.0625 281.160156 84.226562 289.210938 94.238281 296.671875 C 102.261719 302.640625 111.789062 303.71875 121.226562 305.425781 C 150.855469 310.742188 180.125 309.875 209.066406 301.253906 C 211.746094 300.457031 246.761719 287.34375 254.289062 282.207031 C 254.289062 282.207031 280.460938 267.753906 281.160156 267.34375 C 292.074219 261.003906 301.746094 253.140625 310.183594 243.753906 C 319.148438 233.667969 327.195312 222.828125 329.039062 208.800781 C 330.5625 197.132812 331.746094 185.460938 336.164062 174.417969 C 337.484375 171.101562 336.523438 168.75 333.816406 166.578125 Z M 321.023438 156.898438 C 320.949219 157.042969 320.898438 157.210938 320.839844 157.367188 C 320.933594 156.695312 321.039062 156.023438 321.132812 155.34375 C 322.109375 155.863281 321.300781 156.382812 321.023438 156.898438 Z M 320.4375 152.316406 C 321.210938 152.425781 323.167969 153.777344 321.089844 155.234375 C 319.738281 154.316406 318.828125 156.242188 317.28125 155.667969 C 318.382812 154.476562 318.054688 151.984375 320.4375 152.316406 Z M 289.542969 80.289062 L 292.109375 81.953125 C 291.984375 80.238281 290.550781 79.765625 290.03125 78.789062 L 290.234375 78.402344 C 293.835938 81.445312 296.855469 84.988281 299.285156 89.027344 L 289.140625 80.765625 Z M 65.617188 128.90625 C 65.9375 128.710938 66.277344 128.550781 66.632812 128.429688 L 66.046875 129.890625 L 65.320312 129.613281 C 65.363281 129.355469 65.421875 129.035156 65.597656 128.90625 Z M 64.792969 131.273438 C 64.230469 134.105469 63.132812 135.652344 61.753906 137.480469 C 61.804688 135.023438 62.867188 133.464844 64.773438 131.273438 Z M 58.660156 138.679688 C 57.761719 141.195312 56.851562 143.382812 54.945312 145.484375 C 55.019531 144.128906 55.378906 142.855469 56.023438 141.664062 C 56.671875 140.472656 57.542969 139.476562 58.636719 138.679688 Z M 48.886719 158.890625 C 47.527344 159.378906 47.988281 161.078125 46.507812 162.589844 C 46.449219 159.882812 46.625 158.320312 48.894531 157.757812 C 50.839844 156.914062 50.15625 154.71875 51.148438 153.382812 C 51.585938 150.824219 53.007812 148.722656 54.121094 146.257812 C 55.5 148.050781 52.402344 149.613281 54.378906 151.09375 C 54.976562 150.632812 55.886719 150.617188 55.886719 151.09375 C 55.816406 151.734375 55.976562 152.308594 56.371094 152.820312 C 59.871094 145.722656 63.742188 138.78125 66.726562 131.464844 C 68.585938 126.929688 71.101562 123.609375 75.617188 121.488281 C 76.09375 123.675781 73.363281 125.03125 74.085938 127.378906 C 75.984375 125.925781 77.257812 124.050781 77.910156 121.75 C 78.695312 118.65625 80.824219 116.804688 83.335938 115.460938 C 93.992188 109.792969 103.40625 102.070312 114.457031 97.058594 C 125.210938 92.1875 135.382812 85.710938 147.28125 84.023438 C 166.691406 81.28125 185.210938 74.769531 204.488281 71.304688 C 223.765625 67.839844 242.839844 67.933594 262.066406 70.371094 C 276.320312 72.171875 287.0625 80.667969 297.675781 89.371094 C 299.652344 96.503906 307.996094 100.53125 307.246094 109 C 307.203125 109.289062 307.21875 109.570312 307.296875 109.851562 C 307.609375 110.65625 307.542969 112.441406 307.136719 112.769531 C 307.0625 113.179688 306.988281 113.59375 306.910156 114.003906 C 307.128906 114.996094 307.265625 115.964844 306.238281 116.636719 L 305.390625 115.125 C 303.511719 121.550781 300.636719 127.488281 295.222656 131.601562 C 291.921875 134.105469 290.511719 138.066406 287.128906 140.398438 C 290.605469 139.167969 292.582031 136.207031 295.273438 134.03125 C 295.828125 136.039062 294.421875 137.042969 293.355469 138.292969 C 288.710938 143.769531 281.6875 146.109375 276.582031 150.917969 C 275.414062 152.011719 274.246094 151.492188 273.152344 150.597656 C 271.660156 149.3125 270.035156 148.230469 268.273438 147.351562 C 268.308594 149.125 269.945312 149.539062 270.839844 150.53125 C 271.738281 151.523438 274.613281 151.707031 272.613281 153.703125 C 271.089844 155.226562 269.097656 157.5625 266.441406 155.113281 C 265.71875 154.324219 265.066406 153.480469 264.488281 152.582031 C 264.253906 152.613281 264.0625 152.71875 263.910156 152.898438 C 263.757812 153.074219 263.683594 153.28125 263.683594 153.515625 C 263.4375 155.316406 267.996094 155.949219 264.722656 158.5625 C 258.785156 163.296875 256.699219 164.03125 253.414062 161.480469 C 251.953125 160.234375 250.269531 159.472656 248.367188 159.195312 C 250.554688 161.261719 250.496094 161.539062 250.058594 166.234375 C 251.867188 166.15625 252.34375 163.316406 255.003906 163.945312 C 253.757812 166.058594 251.78125 166.476562 250.132812 167.320312 C 244.714844 172.753906 240.988281 167.832031 236.886719 164.84375 C 236.886719 167.757812 239.390625 168.25 240.847656 169.472656 C 242.5625 170.933594 242.371094 171.84375 240.578125 172.390625 C 237.527344 173.339844 234.890625 176.671875 231.042969 174.242188 C 231.773438 172.3125 233.621094 170.851562 233.472656 168.523438 C 230.621094 168.882812 230.992188 173.632812 227.785156 172.472656 C 225.648438 171.699219 223.859375 169.949219 221.949219 168.632812 L 221.285156 169.488281 L 230.273438 176.484375 C 224.785156 179.714844 222.875 179.042969 219.558594 173.28125 C 218.785156 171.929688 216.0625 174.011719 214.617188 172.019531 C 216.761719 174.9375 216.761719 174.9375 215.917969 177.964844 C 218.308594 176.148438 220.199219 176.453125 221.804688 178.648438 C 215.851562 181.222656 215.875 181.195312 210.8125 177.050781 C 208.902344 175.492188 206.859375 174.082031 204.808594 172.550781 C 204.078125 173.683594 204.933594 174.011719 205.328125 174.425781 C 206.589844 175.777344 209.097656 176.789062 206.75 179.125 C 204.933594 180.933594 203.320312 183.417969 200.183594 180.523438 C 197.9375 178.453125 195.144531 176.980469 192.410156 175.476562 C 194.246094 178.765625 197.515625 180.515625 200.519531 182.28125 C 203.875 184.242188 201.367188 185.929688 200.613281 187.511719 C 199.453125 189.917969 197.441406 187.511719 197.417969 187.117188 C 197.164062 183.273438 193.234375 184.527344 191.335938 182.828125 C 188.265625 180.097656 184.984375 177.644531 181.488281 175.476562 C 183.035156 178.445312 185.691406 180.363281 188.179688 182.265625 C 191.097656 184.457031 188.792969 186.050781 187.9375 187.664062 C 186.601562 190.179688 185.421875 188.027344 184.289062 187.25 C 179.878906 184.191406 175.488281 181.113281 170.804688 178.402344 C 171.359375 180.539062 173.328125 181.195312 174.734375 182.316406 C 177.367188 184.417969 177.148438 189.050781 174.144531 190.597656 C 172.957031 191.210938 172.453125 190.085938 171.621094 189.664062 C 166.734375 187.160156 162.578125 183.574219 158.011719 180.558594 C 159.964844 184.367188 163.605469 186.265625 166.902344 188.453125 C 169.242188 190.007812 169.820312 191.371094 168.359375 193.980469 C 166.621094 197.203125 165.160156 200.542969 163.984375 204.011719 C 167.171875 201.339844 168.777344 197.730469 170.300781 194.054688 C 170.621094 193.273438 170.4375 191.601562 171.8125 192.011719 C 173.554688 192.53125 171.757812 193.796875 172 194.929688 C 174.882812 192.324219 176.835938 194.929688 179.441406 195.9375 C 169.578125 204.140625 160.59375 213.734375 146.164062 207.03125 L 145.085938 207.03125 C 144.238281 207.082031 142.898438 207.917969 142.898438 206.386719 C 142.898438 205.609375 144.226562 205.796875 145.035156 205.996094 L 146.261719 205.996094 C 148.097656 204.738281 150.878906 206.25 152.351562 203.9375 C 152.652344 204.308594 153.027344 204.574219 153.480469 204.734375 C 153.933594 204.890625 154.390625 204.921875 154.859375 204.820312 C 158.425781 203.996094 159.191406 199.757812 162.386719 198.402344 C 160.4375 196.265625 162.746094 192.710938 159.863281 190.765625 C 158.71875 191.820312 159.789062 194.199219 157.914062 194.410156 C 156.683594 194.558594 155.777344 193.207031 154.773438 192.421875 C 151.605469 189.949219 149.484375 186.503906 146.398438 183.339844 C 145.9375 185.863281 147.710938 186.746094 148.644531 187.957031 C 149.492188 189.050781 149.90625 189.816406 149.375 191.355469 C 147.296875 197.066406 146.960938 197.292969 142.269531 193.492188 C 139.492188 191.230469 136.894531 188.75 133.917969 186.679688 C 134.277344 188.6875 135.960938 189.597656 137.070312 190.902344 C 137.683594 191.632812 138.855469 192.097656 138.628906 193.296875 C 138.339844 194.8125 138.332031 196.832031 137.363281 197.671875 C 136.261719 198.628906 134.882812 196.941406 133.839844 196.148438 C 130.191406 193.296875 126.609375 190.347656 122.691406 187.808594 C 125.164062 191.632812 128.996094 193.964844 132.394531 196.761719 C 133.496094 197.664062 134.691406 198.460938 135.816406 199.335938 C 136.703125 200.0625 136.347656 200.917969 135.9375 201.632812 C 135.628906 202.121094 135.1875 202.414062 134.617188 202.515625 C 131.359375 202.785156 126.699219 199.019531 125.902344 195.425781 C 123.851562 198.144531 121.832031 196.046875 120.871094 194.8125 C 119.394531 193.003906 117.53125 191.789062 115.28125 191.164062 C 114.230469 190.816406 113.371094 189.925781 112.410156 189.3125 C 109.871094 187.6875 110.097656 189.3125 110.382812 190.96875 C 107.527344 194.023438 105.917969 190.238281 103.699219 189.625 C 103.183594 191.085938 106.144531 191.960938 104.261719 193.523438 C 105.203125 194.617188 107.910156 192.484375 107.742188 195.234375 C 107.691406 196.277344 107.449219 198.152344 105.859375 198.152344 C 104.90625 198.105469 104.027344 197.832031 103.214844 197.332031 C 102.40625 196.832031 101.761719 196.167969 101.292969 195.335938 C 100.351562 193.804688 103.183594 194.828125 103.183594 193.492188 C 97.914062 193.195312 101.773438 189.539062 101.183594 187.191406 C 98.828125 188.386719 99.214844 191.210938 97.1875 192.296875 L 91.824219 187.882812 L 91.277344 188.402344 L 95.785156 192.910156 C 91.460938 194.140625 88.40625 190.722656 88.046875 184.886719 L 87.054688 185.003906 C 86.527344 185.652344 86.15625 186.382812 85.9375 187.191406 C 85.261719 191.507812 82.875 192.917969 78.289062 191.769531 C 79.621094 188.570312 81.816406 185.601562 81.125 181.3125 C 78.417969 185.125 78.863281 191.683594 71.570312 190.617188 C 74 185.839844 76.414062 181.246094 76.53125 175.804688 C 92.691406 182.019531 108.855469 179.859375 125.011719 177.839844 L 125.011719 176.964844 C 112.175781 177.234375 99.332031 178.882812 86.5 177.042969 C 80.285156 176.15625 74.523438 174.324219 71.914062 167.722656 C 72.75 170.117188 73.277344 172.683594 75.5 174.332031 C 76.375 174.980469 75.917969 175.722656 75.566406 176.570312 C 73.734375 181.035156 72.015625 185.542969 70.34375 189.789062 C 62.957031 188.917969 64.757812 184.566406 67.542969 179.429688 C 66.644531 179.855469 65.859375 180.4375 65.1875 181.175781 C 64.519531 181.914062 64.015625 182.75 63.679688 183.6875 C 63.175781 184.761719 62.472656 184.769531 61.605469 184.417969 C 60.5625 183.996094 61.152344 183.304688 61.367188 182.667969 C 62.015625 180.664062 63.050781 178.738281 62.671875 176.265625 C 61.210938 176.933594 61.5625 178.605469 60.714844 179.285156 C 59.628906 180.160156 60.484375 183.660156 57.800781 182.019531 C 55.9375 180.882812 53.132812 179.503906 55.421875 176.015625 C 57.609375 172.71875 58.988281 168.957031 58.1875 164.644531 C 56.660156 168.53125 55.128906 172.421875 53.261719 177.183594 C 51.210938 174.089844 49.914062 171.945312 52.191406 168.855469 C 52.988281 167.742188 53.601562 166.535156 54.027344 165.230469 C 54.457031 163.929688 54.675781 162.59375 54.691406 161.222656 L 53.445312 161.28125 C 52.949219 162.464844 52.378906 163.625 51.984375 164.84375 C 51.410156 166.652344 50.796875 164.84375 50.21875 164.914062 C 48.132812 165.300781 47.96875 166.832031 48.03125 168.480469 C 45.605469 164.5 45.878906 163.632812 49.628906 163.105469 C 51.148438 161.480469 50.832031 160.070312 48.886719 158.890625 Z M 293.707031 141.96875 C 291.695312 144.667969 289.617188 147.269531 286.113281 148.277344 C 288.113281 145.570312 291.648438 144.710938 293.707031 141.96875 Z M 262.613281 163.121094 L 262.152344 162.609375 L 269.183594 157.875 L 269.410156 158.195312 Z M 264.523438 166.140625 C 262.253906 169.859375 260.046875 171.558594 255.769531 172.371094 Z M 274.699219 156.109375 C 274.617188 161.121094 271.109375 161.105469 268.039062 162.894531 C 269.890625 159.808594 271.964844 158.285156 274.699219 156.109375 Z M 233.488281 180.007812 C 230.863281 181.539062 228.777344 184.300781 224.640625 183.777344 C 225.824219 182.617188 227.175781 181.710938 228.699219 181.058594 C 230.222656 180.410156 231.8125 180.058594 233.464844 180.007812 Z M 175.988281 191.816406 C 176.121094 190.816406 176.4375 189.886719 176.945312 189.015625 C 177.449219 188.148438 178.105469 187.410156 178.90625 186.804688 C 181.695312 185.066406 182.746094 189.160156 185.40625 189.304688 C 187.316406 192.457031 183.792969 193.71875 183.101562 195.804688 C 182.664062 197.117188 179.847656 196.535156 179.878906 196.425781 C 180.441406 193.085938 175.726562 193.980469 175.96875 191.816406 Z M 190.402344 187.039062 C 190.605469 186.308594 190.542969 184.675781 192.203125 185.519531 C 192.683594 185.691406 193.066406 185.988281 193.347656 186.414062 C 193.632812 186.835938 193.761719 187.300781 193.734375 187.808594 C 193.632812 192.785156 190.089844 196.140625 184.757812 195.980469 C 186.558594 192.929688 189.359375 190.507812 190.382812 187.039062 Z M 194.941406 190.515625 C 195.523438 187.074219 197.945312 188.511719 198.507812 189.890625 C 199.863281 193.230469 201.082031 190.902344 201.425781 189.84375 C 203.078125 184.28125 206.078125 184.914062 209.738281 188.335938 C 209.777344 184.957031 210.03125 182.851562 213.957031 183.574219 C 215.660156 183.886719 217.980469 184.402344 219.789062 182.339844 C 221.46875 180.4375 222.445312 182.574219 223.402344 183.761719 C 223.746094 183.6875 224.09375 183.628906 224.445312 183.59375 C 224.671875 184.441406 223.949219 184.367188 223.472656 184.542969 C 215.449219 193.414062 204.035156 192.207031 193.707031 194.550781 C 193.269531 192.820312 194.683594 191.867188 194.917969 190.507812 Z M 204.058594 182.261719 C 204.058594 182.09375 204.722656 182.039062 205.078125 181.929688 C 206.484375 181.699219 207.339844 179.960938 209.761719 180.40625 C 207.84375 181.667969 207.960938 184.667969 204.992188 183.375 C 204.4375 183.214844 203.949219 182.894531 204.035156 182.261719 Z M 155.382812 200.757812 C 155.332031 200.648438 155.289062 200.515625 155.210938 200.5 C 147.914062 198.824219 147.914062 198.824219 150.988281 191.355469 C 158.179688 196.773438 158.230469 196.820312 155.363281 200.757812 Z M 151.007812 202.566406 L 155.3125 200.894531 C 155.699219 203.257812 152.691406 202.214844 152.253906 203.746094 C 152.167969 203.019531 151.527344 203.390625 151.082031 203.316406 C 149.46875 203.785156 147.878906 204.417969 146.152344 203.914062 C 145.828125 204.082031 145.339844 204.402344 145.296875 203.804688 C 145.261719 203.324219 145.800781 203.273438 146.230469 203.476562 C 147.738281 202.75 149.328125 202.445312 151 202.566406 Z M 145.171875 200.167969 C 144.394531 201.105469 144.058594 202.75 142.394531 201.828125 C 140.933594 201.011719 138.746094 200.558594 139.390625 197.972656 C 139.703125 196.65625 139.796875 195.300781 140.054688 193.527344 C 141.546875 194.761719 142.707031 195.71875 143.867188 196.671875 C 145.027344 197.628906 146.859375 198.109375 145.160156 200.167969 Z M 119.410156 207.578125 C 119.9375 207.199219 120.34375 206.433594 121.167969 206.949219 C 120.769531 207.679688 120.054688 207.679688 119.339844 207.597656 L 119.234375 207.554688 Z M 118.214844 199.925781 C 116.625 198.582031 117.398438 197.738281 117.753906 196.871094 C 118.019531 196.21875 118.347656 195.316406 119.140625 195.753906 C 120.746094 196.566406 122.207031 197.589844 123.515625 198.824219 C 124.066406 199.378906 123.515625 200.773438 122.859375 201.53125 C 121.648438 202.878906 121.402344 201.324219 120.730469 200.800781 C 119.863281 200.171875 118.527344 200.390625 118.214844 199.925781 Z M 131.554688 204.972656 C 132.050781 204.652344 132.714844 204.347656 132.816406 205.183594 C 132.898438 205.914062 132.085938 205.871094 131.546875 205.863281 C 128.105469 205.761719 124.925781 208.378906 121.335938 206.921875 C 122.90625 206.09375 124.558594 205.515625 126.300781 205.183594 C 128.042969 204.851562 129.792969 204.78125 131.554688 204.972656 Z M 114.050781 199.5625 C 112.132812 200.128906 110.273438 201.171875 108.375 200.171875 C 107.441406 199.675781 108.734375 198.714844 108.761719 197.984375 C 108.894531 194.894531 111.316406 197.839844 112.21875 196.796875 C 111.882812 198.183594 114.019531 198.109375 114.070312 199.5625 Z M 112.3125 196.578125 C 109.585938 195.527344 111.914062 192.566406 110.308594 191.09375 C 113.035156 190.40625 114.328125 193.011719 116.355469 193.921875 C 117.085938 194.257812 116.105469 195.679688 115.699219 196.546875 C 114.632812 198.859375 113.460938 195.949219 112.335938 196.578125 Z M 81.738281 214.441406 C 77.691406 213.710938 74.386719 213.820312 71.738281 211.464844 C 74.84375 212.433594 79.0625 208.796875 81.738281 214.441406 Z M 69.667969 208.605469 C 71.175781 208.34375 72.757812 207.789062 73.707031 209.613281 C 72.539062 208.664062 70.714844 209.976562 69.667969 208.621094 Z M 81.410156 201.984375 C 84.261719 201.390625 86.558594 201.792969 88.507812 205.191406 C 85.488281 204.300781 83.007812 204.367188 81.410156 201.984375 Z M 83.734375 197.664062 C 85.496094 196.4375 87.222656 196.160156 88.9375 198.167969 Z M 86.566406 214.636719 L 100.554688 210.398438 C 100.8125 210.207031 101.097656 210.0625 101.402344 209.964844 C 101.707031 209.867188 102.019531 209.820312 102.34375 209.824219 C 102.664062 209.832031 102.976562 209.886719 103.277344 209.996094 C 103.578125 210.105469 103.855469 210.257812 104.109375 210.457031 L 100.5625 211.320312 C 96.070312 213.296875 91.585938 215.273438 86.59375 215.636719 C 85.699219 215.941406 84.800781 216.367188 83.734375 215.527344 C 84.480469 214.507812 85.496094 214.5 86.558594 214.636719 Z M 100.542969 203.347656 C 100.90625 203.71875 101.546875 204.191406 101.46875 204.390625 C 101.074219 205.394531 100.164062 205.039062 99.375 204.945312 C 98.847656 205.066406 98.214844 205.460938 98.164062 204.507812 C 98.234375 204.417969 98.316406 204.347656 98.417969 204.292969 C 98.515625 204.242188 98.625 204.210938 98.734375 204.207031 C 98.847656 204.199219 98.957031 204.21875 99.0625 204.257812 C 99.167969 204.300781 99.257812 204.359375 99.339844 204.441406 Z M 95.550781 205.445312 C 96.046875 203.988281 97.179688 204.570312 98.097656 204.527344 C 97.582031 205.671875 96.566406 205.492188 95.546875 205.445312 Z M 103.574219 202.652344 C 102.300781 201.5 101.328125 201.925781 100.527344 203.199219 C 99.601562 201.785156 97.148438 203.464844 96.582031 201.253906 C 97.601562 200.035156 99.550781 201.070312 100.535156 199.730469 C 100.992188 200.40625 101.644531 200.253906 102.308594 200.101562 C 103.203125 199.898438 104.261719 199.3125 104.917969 200.347656 C 105.816406 201.769531 103.035156 201.296875 103.582031 202.652344 Z M 100.550781 199.621094 C 99.820312 197.90625 97.988281 199.691406 96.902344 198.320312 C 97.464844 197.460938 97.054688 195.285156 99.25 196.191406 C 100.484375 196.679688 102.410156 197.6875 100.554688 199.621094 Z M 69.449219 208.632812 C 69.296875 208.773438 69.121094 208.839844 68.914062 208.828125 C 68.710938 208.820312 68.539062 208.738281 68.40625 208.582031 Z M 47.761719 172.894531 C 48.769531 172.734375 49.113281 173.960938 49.0625 175.082031 C 48.914062 178.648438 52.707031 179.125 54.253906 181.378906 C 55.210938 182.726562 56.886719 183.566406 58.238281 184.644531 C 53.503906 182.808594 48.023438 181.902344 47.085938 175.585938 C 46.9375 174.617188 46.222656 173.171875 47.761719 172.929688 Z M 47.367188 168.875 L 47.855469 168.722656 L 47.652344 169.335938 Z M 58.308594 206.578125 C 58.367188 206.59375 58.421875 206.617188 58.46875 206.652344 C 59.003906 207.066406 59.644531 205.8125 60.117188 206.765625 C 60.1875 206.933594 60.230469 207.105469 60.257812 207.285156 C 60.203125 207.277344 60.148438 207.277344 60.097656 207.285156 C 59.492188 207.496094 58.894531 207.722656 58.132812 208.015625 C 58.269531 207.632812 58.351562 207.238281 58.382812 206.832031 C 58.359375 206.753906 58.324219 206.679688 58.273438 206.613281 Z M 59.332031 200.945312 C 61.957031 200.496094 63.355469 201.457031 64.707031 203.199219 C 63.6875 203.230469 62.707031 203.050781 61.765625 202.667969 C 60.824219 202.28125 60 201.71875 59.292969 200.984375 Z M 63.152344 208.285156 L 63.4375 208.730469 L 62.707031 208.730469 Z M 64.632812 208.742188 L 63.546875 208.742188 C 63.902344 208.160156 64.285156 207.949219 64.632812 208.742188 Z M 65.53125 208.65625 L 64.699219 208.742188 C 64.699219 208.386719 64.925781 208.234375 65.3125 208.359375 C 65.429688 208.410156 65.480469 208.578125 65.550781 208.679688 Z M 46.398438 188.101562 C 48.441406 190.488281 50.773438 192.332031 53.875 193.078125 C 49.679688 193.734375 47.742188 192.523438 46.398438 188.101562 Z M 48.804688 207.160156 C 50.753906 205.089844 52.371094 207.320312 53.597656 208.488281 C 54.824219 209.65625 55.96875 211.28125 53.714844 212.691406 C 53.050781 213.105469 52.21875 213.257812 51.976562 214.148438 C 51.4375 213.003906 50.351562 212.421875 49.410156 211.667969 C 47.777344 210.355469 47.585938 208.414062 48.777344 207.160156 Z M 55.304688 221.988281 C 52.199219 221.441406 51.613281 218.78125 49.828125 217.242188 C 48.828125 216.378906 50.957031 215.234375 52.015625 214.324219 C 52.367188 215.007812 52.871094 215.554688 53.523438 215.960938 C 54.179688 216.367188 54.890625 216.574219 55.660156 216.585938 C 57.523438 216.257812 52.933594 214.566406 56.515625 214.023438 C 62.527344 213.128906 68.105469 214.398438 73.742188 215.820312 C 75.363281 216.226562 76.433594 217.226562 74.472656 218.738281 C 72.167969 220.554688 73.371094 221.472656 75.328125 222.222656 C 76.128906 222.53125 76.910156 222.894531 77.726562 223.148438 C 80.59375 224.03125 83.648438 225.878906 86.289062 225.417969 C 88.15625 225.089844 89.492188 221.675781 91.394531 219.839844 C 92.363281 218.890625 93.136719 217.984375 94.464844 217.917969 C 100.46875 217.628906 105.523438 214.324219 111.117188 212.71875 C 113.304688 212.097656 114.765625 211.851562 115.917969 214.476562 C 116.945312 216.855469 118.433594 217.117188 120.753906 214.957031 C 125.414062 210.625 131.941406 209.066406 137.667969 208.738281 C 142.109375 208.480469 147.425781 210.117188 152.089844 211.800781 C 153.292969 212.277344 154.542969 212.585938 155.832031 212.730469 C 157.121094 212.875 158.40625 212.847656 159.691406 212.648438 C 160.972656 212.449219 162.207031 212.085938 163.390625 211.554688 C 164.574219 211.027344 165.671875 210.351562 166.675781 209.53125 C 169.703125 207.226562 173.738281 206.359375 175.960938 202.851562 C 176.582031 201.867188 178.191406 201.675781 179.542969 201.835938 C 180.03125 201.535156 180.5625 201.363281 181.136719 201.324219 C 181.710938 201.285156 182.261719 201.378906 182.789062 201.609375 C 186.304688 203.230469 189.484375 202.777344 192.855469 200.632812 C 197.089844 197.949219 202.378906 198.378906 207.097656 196.679688 C 213.246094 194.492188 219.5 192.769531 224.261719 188.007812 C 224.464844 187.808594 224.683594 187.488281 224.910156 187.46875 C 233.035156 186.875 239.34375 180.5 248.132812 180.902344 C 252.25 181.078125 256.976562 177.621094 260.59375 174.402344 C 262.84375 172.40625 264.949219 170.265625 266.910156 167.976562 C 268.363281 166.179688 270.140625 164.789062 272.234375 163.804688 C 275 162.558594 276.71875 160.726562 278.070312 157.578125 C 279.988281 153.011719 284.902344 151.566406 289.695312 150.886719 C 290.746094 150.554688 291.488281 149.34375 292.90625 149.605469 C 292.21875 148.304688 293.574219 147.03125 294.539062 146.578125 C 299.972656 144.0625 302.199219 137.964844 307.417969 135.300781 C 308.359375 134.828125 308.84375 132.382812 310.277344 134.097656 C 310.558594 134.382812 310.78125 134.707031 310.941406 135.070312 C 311.101562 135.433594 311.191406 135.816406 311.210938 136.214844 C 311.230469 136.613281 311.179688 137.003906 311.058594 137.382812 C 310.933594 137.761719 310.746094 138.105469 310.496094 138.414062 C 309.5 139.621094 308.550781 140.875 307.582031 142.097656 C 307.046875 142.761719 306.273438 143.523438 307.039062 144.289062 C 307.207031 144.425781 307.394531 144.53125 307.601562 144.601562 C 307.804688 144.671875 308.015625 144.707031 308.234375 144.703125 C 308.449219 144.699219 308.660156 144.65625 308.863281 144.578125 C 309.066406 144.5 309.25 144.386719 309.410156 144.242188 C 311.707031 142.609375 314.195312 141.363281 316.878906 140.5 C 316.9375 139.96875 316.878906 139.34375 317.652344 139.304688 C 318.425781 139.269531 318.507812 139.800781 318.542969 140.378906 C 319.898438 142.382812 319.164062 143.726562 317.691406 145.554688 C 312.90625 151.523438 305.75 152.851562 299.300781 155.519531 C 296.441406 156.714844 293.132812 157.234375 293.074219 161.421875 C 293.074219 162.148438 292.035156 163.03125 293.125 163.609375 C 293.917969 164.019531 294.785156 163.449219 295.421875 162.820312 C 297.113281 161.160156 298.785156 159.472656 300.527344 157.714844 C 301.679688 159.664062 300.351562 160.414062 299.527344 161.296875 C 297.214844 163.753906 294.175781 165.671875 294.035156 169.613281 C 293.949219 170.214844 293.625 170.644531 293.074219 170.894531 C 288.535156 171.625 285.777344 176.207031 280.820312 176.292969 C 277.472656 176.34375 276.0625 179.757812 274.058594 181.828125 C 270.972656 185.007812 267.492188 186.722656 263.328125 188.25 C 259.164062 189.773438 255.640625 193.433594 252.03125 196.386719 C 250.613281 197.546875 249.113281 198.925781 247.535156 198.101562 C 243.160156 195.855469 239.511719 198.292969 235.71875 199.5625 C 231.050781 201.179688 226.84375 202.28125 221.863281 199.757812 C 219.816406 198.785156 217.695312 198.03125 215.496094 197.496094 C 213.421875 196.984375 210.386719 198.75 208.199219 200.414062 C 206.84375 201.433594 204.851562 202.433594 205.640625 204.359375 C 206.296875 205.949219 208.179688 204.796875 209.511719 204.730469 C 210.628906 204.675781 211.703125 204.390625 213.160156 205.097656 C 210.8125 207.625 208.09375 209.65625 205.003906 211.195312 C 196.980469 215.199219 188.332031 215.074219 179.738281 215.484375 C 175.875 216.46875 172.203125 217.460938 170.109375 221.566406 C 168.132812 225.433594 164.277344 224.894531 160.628906 224.484375 C 160.21875 224.441406 159.484375 224.238281 159.484375 224.097656 C 159.433594 217.964844 156.667969 222.761719 155.035156 222.960938 C 154.179688 223.042969 153.328125 223.042969 152.472656 222.960938 C 147.785156 222.535156 143.101562 222.046875 138.390625 222.910156 C 137.460938 223.109375 136.53125 223.125 135.59375 222.960938 C 134.660156 222.796875 133.789062 222.464844 132.984375 221.960938 C 127.878906 218.386719 122.328125 219.910156 116.9375 220.160156 C 114.128906 220.28125 111.148438 220.886719 110.585938 224.617188 C 110.542969 224.855469 110.324219 225.222656 110.117188 225.265625 C 104.589844 226.527344 102.242188 232.257812 97.441406 234.390625 C 92.640625 236.519531 87.734375 237.992188 83.34375 232.792969 C 82.242188 231.488281 79.242188 231.171875 77.230469 231.40625 C 76.667969 231.492188 76.109375 231.492188 75.546875 231.40625 C 74.984375 231.324219 74.449219 231.15625 73.941406 230.910156 C 73.429688 230.664062 72.96875 230.34375 72.554688 229.957031 C 72.140625 229.570312 71.792969 229.128906 71.511719 228.632812 C 67.492188 222.84375 61.050781 223.003906 55.273438 221.988281 Z M 84.480469 276.972656 L 85.9375 277.4375 C 85.21875 277.765625 84.835938 277.308594 84.421875 276.972656 Z M 85.707031 265.015625 C 85.757812 264.828125 85.800781 264.636719 85.84375 264.484375 L 86.253906 264.484375 C 86.214844 264.675781 86.15625 264.863281 86.070312 265.039062 C 85.976562 265.066406 85.785156 265.023438 85.648438 265.015625 Z M 86.917969 278.144531 L 86.230469 277.511719 L 87.136719 277.699219 Z M 102.5625 275.890625 C 102.859375 275.722656 103.136719 275.441406 103.445312 275.410156 C 104.058594 275.367188 104.386719 275.6875 104.175781 276.351562 C 104.289062 276.132812 104.398438 275.90625 104.515625 275.679688 L 105.355469 276.351562 C 105.765625 275.25 106.179688 276.050781 106.59375 276.351562 C 107.886719 275.679688 109.183594 275.003906 110.242188 276.652344 C 109.746094 276.578125 109.183594 276.386719 108.972656 277.050781 C 108.929688 277.210938 109.359375 277.527344 109.601562 277.78125 C 108.945312 279.125 108.179688 279.523438 107.207031 277.984375 C 105.984375 280.070312 102.90625 278.875 101.730469 281.042969 C 99.476562 278.421875 103.683594 278.570312 103.613281 276.875 Z M 104.457031 282.0625 L 105.042969 282.238281 L 105.042969 282.652344 C 104.84375 282.601562 104.648438 282.527344 104.464844 282.433594 C 104.445312 282.414062 104.488281 282.1875 104.488281 282.0625 Z M 109.644531 283.054688 C 109.261719 283.25 108.855469 283.347656 108.425781 283.347656 C 107.996094 283.347656 107.589844 283.25 107.207031 283.054688 C 106.851562 283.054688 106.207031 283.054688 106.1875 282.988281 C 105.984375 282.136719 106.632812 282.257812 107.15625 282.257812 L 109.703125 282.257812 L 110.941406 282.425781 C 111.394531 282.425781 112.035156 282.148438 112.042969 282.953125 C 111.976562 283.050781 111.890625 283.125 111.785156 283.179688 C 111.679688 283.230469 111.566406 283.257812 111.449219 283.257812 C 111.332031 283.257812 111.21875 283.230469 111.113281 283.179688 C 111.011719 283.125 110.921875 283.050781 110.855469 282.953125 Z M 109.796875 287.066406 L 109.527344 287.511719 C 109.410156 287.371094 109.285156 287.242188 109.164062 287.101562 Z M 108.945312 287.066406 C 108.585938 287.46875 108.257812 287.417969 107.960938 286.980469 C 108.316406 287.03125 108.644531 287.066406 108.972656 287.09375 Z M 110.957031 277.714844 L 111.460938 278.066406 C 110.929688 278.480469 111.066406 277.972656 110.988281 277.746094 Z M 109.679688 277.757812 L 110.839844 277.679688 C 110.503906 278.101562 110.164062 278.851562 109.710938 277.789062 Z M 110.542969 276.300781 C 110.460938 276.300781 110.410156 276.4375 110.351562 276.535156 C 110.417969 276.292969 110.484375 275.980469 110.527344 275.980469 C 111 276.066406 110.992188 276.191406 110.585938 276.351562 Z M 100.132812 276.25 C 100.101562 276.085938 100.101562 275.917969 100.132812 275.753906 C 100.511719 275.6875 100.863281 275.671875 101.285156 275.644531 C 101.285156 275.839844 101.285156 276.03125 101.335938 276.417969 C 100.957031 276.417969 100.554688 276.382812 100.164062 276.300781 Z M 101.695312 281.195312 C 101.867188 281.785156 104.851562 282.257812 101.8125 282.921875 C 100.796875 283.140625 99.621094 282.777344 98.5 282.675781 C 98.914062 280.515625 100.863281 282.085938 101.722656 281.246094 Z M 102.855469 287.03125 C 102.800781 287.117188 102.726562 287.1875 102.640625 287.234375 C 102.550781 287.285156 102.453125 287.3125 102.351562 287.3125 C 102.246094 287.3125 102.152344 287.285156 102.0625 287.234375 C 101.972656 287.1875 101.902344 287.117188 101.847656 287.03125 Z M 101.664062 287.03125 C 101.386719 287.605469 101.03125 287.5625 100.613281 287.152344 Z M 100.460938 287.117188 C 99.730469 287.972656 98.90625 287.488281 98.089844 287.300781 C 94.890625 288.027344 92.101562 286.773438 89.242188 285.914062 C 89.300781 285.570312 89.351562 285.222656 89.410156 284.871094 L 98.082031 286.433594 C 98.914062 286.664062 99.839844 286.476562 100.492188 287.191406 Z M 93.335938 280.109375 C 93.421875 278.589844 94.722656 279.117188 95.734375 278.824219 C 95.339844 280.289062 94.277344 280.101562 93.363281 280.179688 Z M 88.054688 278.035156 C 90.46875 278.890625 92.429688 278.167969 93.296875 280.1875 C 91.496094 280.648438 90.164062 279.773438 88.054688 278.035156 Z M 89.121094 288.429688 C 91.25 290.933594 94.648438 290.910156 97.484375 292.734375 C 93.078125 293.398438 92.648438 293.171875 89.121094 288.421875 Z M 98.863281 293.535156 C 98.738281 293.535156 98.570312 293.535156 98.515625 293.476562 C 98.457031 293.417969 98.515625 293.238281 98.515625 293.121094 C 98.636719 293.121094 98.804688 293.121094 98.871094 293.179688 C 98.9375 293.238281 98.855469 293.355469 98.863281 293.507812 Z M 99.996094 297.183594 L 99.789062 296.929688 L 100.089844 296.890625 Z M 101.671875 297.867188 C 101.585938 297.824219 101.554688 297.65625 101.496094 297.546875 L 102.335938 297.621094 C 102.25 297.90625 102.023438 297.992188 101.671875 297.804688 Z M 102.480469 297.628906 L 111.824219 298.359375 C 108.644531 298.613281 105.269531 300.554688 102.480469 297.5625 Z M 134.574219 304.863281 C 133.847656 304.804688 134.179688 304.074219 134.042969 303.644531 C 129.777344 304.785156 125.617188 303.746094 121.445312 303.039062 C 120.097656 302.808594 118.527344 302.945312 117.464844 301.492188 C 123.851562 299.480469 129.753906 301.800781 135.699219 303.121094 L 135.1875 303.644531 C 134.65625 303.835938 135.53125 304.878906 134.554688 304.796875 Z M 135.902344 303.070312 C 136.632812 301.996094 137.441406 302.828125 138.230469 303.03125 C 137.472656 304.023438 136.675781 303.433594 135.878906 303.003906 Z M 136.808594 296.257812 C 137.652344 295.863281 138.644531 295.527344 139.503906 296.257812 C 140.03125 296.710938 139.90625 297.175781 139.292969 297.539062 C 138.28125 297.699219 137.238281 298.578125 136.273438 297.539062 C 136.113281 297.367188 136.449219 296.351562 136.785156 296.191406 Z M 138.324219 303.03125 C 139.054688 302.820312 139.695312 302.835938 140.039062 303.644531 C 139.308594 303.71875 138.5 304.128906 138.300781 302.96875 Z M 140.167969 303.652344 C 140.664062 303.105469 141.007812 303.273438 141.269531 303.851562 Z M 141.453125 303.828125 L 141.765625 303.40625 C 142.109375 303.945312 141.6875 303.769531 141.429688 303.761719 Z M 197.84375 301.378906 L 197.695312 301.1875 L 198.019531 301.101562 Z M 199.769531 300.757812 C 199.703125 300.816406 199.5625 300.757812 199.453125 300.757812 C 199.453125 300.648438 199.453125 300.5 199.527344 300.449219 C 199.601562 300.398438 199.730469 300.449219 199.839844 300.449219 C 199.820312 300.523438 199.835938 300.648438 199.769531 300.722656 Z M 201.628906 300.171875 C 201.546875 300.238281 201.375 300.171875 201.242188 300.171875 C 201.242188 300.0625 201.242188 299.882812 201.308594 299.808594 C 201.375 299.734375 201.554688 299.808594 201.695312 299.808594 C 201.671875 299.917969 201.703125 300.070312 201.628906 300.136719 Z M 203.292969 299.933594 C 204.554688 298.371094 205.96875 297.199219 208.046875 297.855469 L 208.148438 297.808594 Z M 325.539062 200.515625 C 324.808594 200.925781 325.011719 201.816406 325.1875 202.480469 C 326.902344 208.90625 323.957031 214.308594 321.058594 219.515625 C 310.324219 238.796875 293.875 252.121094 275.71875 264.089844 C 269.15625 268.410156 262.34375 272.078125 255.589844 275.890625 C 245.539062 281.558594 235.121094 286.585938 224.816406 291.800781 C 222.472656 292.988281 219.761719 292.472656 217.238281 292.878906 C 216.507812 293.003906 215.382812 293.785156 215.21875 292.988281 C 215.027344 292.078125 216.433594 291.875 217.230469 291.464844 L 240.023438 279.882812 C 238.902344 278.140625 237.988281 279.4375 237.375 279.773438 C 229.351562 284.148438 220.878906 287.503906 213.136719 292.40625 C 210.21875 294.25 206.574219 294.894531 203.167969 295.941406 C 202.328125 296.199219 200.980469 296.300781 201.476562 294.550781 C 201.476562 294.347656 201.417969 294.140625 201.371094 293.9375 C 185.507812 298.78125 169.558594 303.195312 152.730469 302.480469 C 148.609375 302.304688 144.507812 301.480469 140.386719 301.019531 C 139.28125 300.894531 139.199219 299.941406 138.585938 299.457031 C 140.207031 298.21875 142.664062 299.722656 143.800781 297.511719 C 143.128906 297.394531 142.453125 297.308594 141.773438 297.261719 C 140.992188 297.261719 139.914062 297.699219 139.9375 296.425781 C 139.9375 295.980469 140.855469 295.542969 141.351562 295.097656 C 140.972656 294.753906 140.542969 294.492188 140.066406 294.308594 C 139.589844 294.125 139.09375 294.03125 138.582031 294.03125 C 138.070312 294.03125 137.578125 294.125 137.101562 294.308594 C 136.621094 294.492188 136.195312 294.753906 135.816406 295.097656 C 130.898438 300.058594 124.421875 297.089844 118.878906 298.648438 C 118.375 298.789062 115.582031 296.796875 113.523438 296.460938 C 113.320312 296.355469 113.238281 296.191406 113.273438 295.964844 C 113.308594 295.738281 113.4375 295.609375 113.664062 295.570312 C 114.210938 295.425781 114.785156 295.375 115.347656 295.28125 C 115.273438 294.921875 115.210938 294.550781 115.144531 294.214844 C 112.132812 293.128906 108.964844 293.710938 105.894531 293.339844 C 102.976562 292.996094 99.996094 292.835938 97.929688 290.480469 L 113.976562 289.714844 C 114.386719 288.722656 111.148438 288.578125 112.789062 286.855469 L 112.699219 285.828125 C 111.621094 284.796875 112.773438 284.710938 113.3125 284.367188 C 113.3125 284.023438 113.363281 283.6875 113.394531 283.347656 L 112.144531 282.929688 C 112.875 282.0625 113.605469 282.148438 114.792969 282.203125 C 119.964844 282.484375 125.171875 282.820312 130.328125 281.902344 L 130.328125 280.902344 C 129.449219 280.675781 127.910156 281.304688 127.855469 279.960938 C 127.792969 278.203125 129.375 278.300781 130.6875 278.292969 C 139.761719 278.210938 148.519531 276.34375 157.121094 273.578125 C 158.996094 272.980469 160.679688 272.3125 161.90625 270.429688 C 163.730469 267.628906 166.691406 267.898438 169.609375 268.421875 C 173.949219 269.203125 177.988281 267.796875 182.007812 266.519531 C 182.195312 265.839844 179.652344 265.949219 181.386719 265.117188 C 183.625 264.0625 186.011719 262.929688 188.679688 263.441406 L 188.789062 263.476562 L 188.617188 263.476562 C 187.886719 264.402344 186.171875 264.316406 186.152344 265.949219 C 193.902344 264.753906 201.621094 263.675781 208.570312 259.445312 C 213.234375 256.605469 218.953125 256.695312 224.085938 255.03125 C 226.777344 254.15625 229.054688 253.195312 230.386719 250.464844 C 231.804688 247.585938 235.238281 248.4375 237.417969 246.820312 C 236.128906 249.285156 232.949219 249.4375 231.351562 252.792969 C 235.421875 250.605469 238.953125 249.691406 241.898438 246.601562 C 244.714844 243.636719 248.945312 242.039062 252.554688 239.839844 C 257.660156 239.632812 261.359375 236.433594 265.269531 233.769531 C 266.355469 233.039062 266.542969 232.148438 264.480469 232.574219 C 263.019531 232.878906 264.019531 231.3125 264.058594 230.867188 C 264.160156 229.613281 265.515625 229.875 266.042969 230.203125 C 269.898438 232.558594 273.277344 232.222656 276.699219 229.183594 C 277.886719 228.125 279.839844 227.917969 281.46875 227.371094 C 288.652344 224.945312 293.867188 219.765625 299.425781 214.921875 C 303.734375 211.144531 307.972656 207.308594 313.132812 204.457031 C 316.457031 202.617188 320.570312 200.867188 322.480469 195.855469 L 312.269531 203.246094 C 314.335938 199.523438 318.441406 197.789062 320.34375 193.980469 C 320.589844 193.722656 320.882812 193.53125 321.21875 193.414062 C 321.554688 193.296875 321.902344 193.265625 322.253906 193.316406 C 324.515625 193.828125 323.851562 196.871094 325.246094 197.554688 C 327.636719 198.6875 327.945312 199.261719 325.539062 200.515625 Z M 113.132812 273.601562 C 113.132812 272.398438 114.398438 273.027344 115.171875 273.136719 L 116.347656 273.28125 C 116.851562 273.238281 117.398438 273.136719 117.558594 273.8125 C 117.5 273.917969 117.417969 274.003906 117.320312 274.066406 C 117.21875 274.132812 117.109375 274.171875 116.988281 274.183594 C 116.871094 274.191406 116.753906 274.175781 116.644531 274.128906 C 116.53125 274.085938 116.4375 274.015625 116.363281 273.921875 L 115.144531 273.921875 C 114.386719 274.164062 113.144531 274.679688 113.132812 273.601562 Z M 117.59375 273.828125 C 117.996094 273.207031 118.382812 273.039062 118.746094 273.828125 C 118.679688 273.917969 118.59375 273.984375 118.492188 274.035156 C 118.390625 274.085938 118.285156 274.109375 118.171875 274.109375 C 118.058594 274.109375 117.953125 274.085938 117.851562 274.035156 C 117.75 273.984375 117.664062 273.917969 117.59375 273.828125 Z M 118.828125 273.785156 C 119.132812 272.902344 119.8125 272.84375 120.613281 273.054688 L 121.605469 272.9375 C 121.664062 273.667969 121.125 273.667969 120.628906 273.785156 Z M 123.664062 272.238281 L 123.941406 272.632812 Z M 126.980469 280.777344 C 127.03125 280.578125 127.105469 280.386719 127.207031 280.203125 C 127.246094 280.144531 127.449219 280.203125 127.582031 280.203125 C 127.53125 280.402344 127.457031 280.59375 127.355469 280.773438 C 127.308594 280.832031 127.105469 280.777344 126.980469 280.777344 Z M 150.59375 272.53125 C 151.535156 271.773438 152.578125 271.207031 153.722656 270.832031 C 154.871094 270.453125 156.046875 270.292969 157.253906 270.339844 C 155.246094 271.988281 153.3125 272.085938 150.59375 272.53125 Z M 158.078125 270.011719 C 158.078125 269.949219 158.265625 269.941406 158.367188 269.910156 C 158.46875 269.882812 158.535156 270.035156 158.535156 270.101562 C 158.535156 270.167969 158.492188 270.355469 158.425781 270.386719 C 158.03125 270.554688 157.902344 270.414062 158.078125 270.011719 Z M 253.117188 236.25 C 254.625 235.769531 255.589844 233.910156 257.886719 234.457031 C 256.761719 236.992188 252.78125 236.644531 252.5625 239.722656 C 251.496094 238.414062 250.335938 237.191406 253.117188 236.265625 Z M 334.078125 174.980469 C 333.175781 177.015625 331.757812 179.042969 329.492188 179.898438 C 325.84375 181.269531 322.109375 182.425781 321.199219 186.964844 C 321.199219 187.089844 321.039062 187.269531 320.929688 187.285156 C 314.144531 188.261719 311.765625 196.535156 304.742188 197.066406 C 302.90625 197.207031 302.007812 198.796875 300.730469 199.640625 C 299.273438 197.496094 303.242188 196.105469 301.679688 195.265625 C 299.492188 194.039062 299.03125 197.503906 297.375 198.410156 C 295.71875 199.3125 294.320312 200.507812 292.738281 201.449219 C 290.703125 202.660156 289.089844 203.636719 291.328125 206.324219 C 292.605469 207.875 289.140625 214.28125 286.179688 215.804688 C 283.816406 217.042969 281.839844 218.460938 280.550781 220.835938 C 279.089844 223.578125 276.324219 223.585938 273.757812 223.5 C 269.382812 223.347656 265.488281 223.929688 261.644531 226.578125 C 257.800781 229.226562 252.757812 229.203125 248.660156 231.609375 C 246.910156 232.644531 244.800781 233.40625 244.144531 235.332031 C 242.722656 239.480469 239.242188 240.554688 235.707031 241.601562 C 233.292969 242.332031 231.269531 243.230469 230.074219 245.730469 C 228.265625 249.53125 224.714844 246.890625 221.679688 248.058594 L 224.179688 240.488281 C 220.117188 243.40625 220.117188 243.40625 220.082031 248.023438 C 219.949219 248.070312 219.808594 248.101562 219.667969 248.109375 C 213.671875 247.25 207.828125 247.671875 203.152344 251.859375 C 201.007812 253.777344 198.738281 253.835938 196.429688 253.820312 C 192.890625 253.820312 189.988281 255.535156 186.84375 256.359375 C 181.644531 257.722656 177.363281 260.398438 172.589844 262.382812 C 164.449219 265.78125 155.398438 265.628906 146.246094 263.542969 C 148.25 261.105469 151.160156 260.28125 153.480469 258.699219 C 154.640625 257.90625 155.96875 257.425781 155.171875 255.964844 C 154.992188 255.6875 154.765625 255.460938 154.492188 255.277344 C 154.21875 255.09375 153.917969 254.972656 153.597656 254.914062 C 153.273438 254.851562 152.949219 254.855469 152.628906 254.929688 C 152.308594 255 152.011719 255.132812 151.746094 255.324219 C 146.761719 259.371094 140.730469 259.386719 134.851562 260.121094 C 130.03125 260.722656 129.339844 261.878906 130.949219 266.730469 C 126.472656 265.089844 122.335938 267.511719 118.449219 267.460938 C 112.371094 267.359375 107.695312 272.207031 101.671875 270.84375 C 100.367188 270.554688 98.417969 271.4375 97.914062 269.832031 C 97.527344 268.605469 98.644531 267.234375 99.527344 266.046875 C 100.410156 264.855469 103.832031 264.339844 101.890625 262.027344 C 99.949219 259.714844 97.726562 261.050781 95.480469 262.582031 C 93.464844 263.945312 92.082031 266.957031 88.746094 265.847656 C 87.753906 265.503906 87.144531 265.847656 88.113281 264.28125 C 89.183594 262.574219 86.945312 262.195312 85.71875 261.683594 C 83.867188 260.894531 81.707031 261.875 79.886719 260.699219 L 79.039062 260.390625 L 79.855469 259.816406 C 80.78125 259.238281 82.261719 258.875 81.621094 257.394531 C 80.980469 255.914062 79.667969 256.542969 78.703125 257.058594 C 76.210938 258.394531 73.125 257.199219 69.949219 259.128906 C 74.6875 260.441406 78.867188 262.753906 82.488281 266.074219 L 71.023438 261.75 L 66.09375 255.023438 C 67.800781 254.746094 69.578125 254.566406 69.46875 251.808594 C 71.714844 252.113281 73.96875 252.347656 76.195312 252.75 C 79.15625 253.289062 82.242188 256.433594 84.882812 252.164062 C 85.152344 252.019531 85.425781 252.019531 85.699219 252.164062 C 88.953125 255.417969 93.3125 253.820312 96.910156 253.953125 C 99.777344 254.054688 102.410156 255.914062 105.378906 254.871094 C 106.835938 254.359375 108.566406 254.242188 109.023438 256.511719 C 109.097656 256.863281 109.578125 257.453125 109.753906 257.417969 C 114.035156 256.484375 119.046875 258.066406 122.582031 255.636719 C 125.5 253.632812 128.121094 253.558594 130.929688 254.054688 C 134.363281 254.667969 137.304688 254.351562 140.328125 252.484375 C 143.246094 250.699219 146.449219 249.050781 149.578125 252.484375 C 150.460938 253.449219 151.765625 252.808594 152.867188 252.617188 C 158.1875 251.691406 163.402344 249.96875 168.957031 250.910156 C 170.433594 251.023438 171.796875 250.683594 173.042969 249.890625 C 176.519531 247.769531 180.292969 246.621094 184.363281 246.445312 C 186.550781 246.359375 188.132812 244.988281 189.5625 243.148438 C 190.109375 242.390625 190.730469 241.699219 191.429688 241.082031 C 192.132812 240.464844 192.890625 239.929688 193.714844 239.484375 C 194.535156 239.039062 195.394531 238.691406 196.296875 238.441406 C 197.195312 238.191406 198.113281 238.042969 199.046875 238 C 206.542969 237.621094 214.109375 237.875 219.839844 231.230469 C 221.941406 228.800781 226.046875 229.347656 229.324219 229.511719 C 232.320312 229.65625 234.253906 228.933594 236.085938 226.265625 C 240.335938 220.058594 245.566406 218.714844 252.757812 221.195312 C 253.195312 222.769531 250.664062 222.753906 251.300781 225.066406 C 254.765625 223.457031 258.59375 222.390625 261.082031 219.574219 C 262.132812 218.207031 263.496094 217.320312 265.171875 216.921875 C 266.695312 216.5625 268.09375 215.929688 269.363281 215.019531 C 270.636719 214.109375 271.683594 212.988281 272.511719 211.660156 C 275.574219 206.914062 278.433594 201.742188 284.230469 199.261719 C 287.734375 197.753906 290.839844 195.285156 294.09375 193.214844 C 294.683594 192.835938 295.632812 192.207031 295.550781 191.757812 C 295.054688 186.738281 299.113281 185.066406 302.117188 182.601562 C 302.4375 182.332031 302.847656 181.960938 302.898438 181.601562 C 303.488281 176.359375 307.507812 176.109375 311.4375 175.5625 C 312.691406 175.390625 314.246094 174.667969 314.035156 173.164062 C 313.5625 169.707031 315.121094 169.085938 318.140625 169.269531 C 319.023438 169.3125 319.859375 169.140625 320.648438 168.75 C 321.441406 168.363281 322.089844 167.804688 322.589844 167.082031 C 325.144531 163.367188 328.273438 164.988281 330.824219 166.621094 C 333.683594 168.445312 335.667969 171.371094 334.050781 175.023438 Z M 334.078125 174.980469 " fill-opacity="1" fill-rule="nonzero"/><path fill="#000000" d="M 289.8125 152.398438 C 288.5 153.945312 285.800781 153.980469 285.171875 156.824219 C 290.066406 156.148438 293.640625 153.40625 297.308594 150.882812 C 297.4375 150.8125 297.542969 150.722656 297.628906 150.609375 C 297.714844 150.492188 297.773438 150.367188 297.804688 150.226562 C 297.835938 150.085938 297.839844 149.945312 297.808594 149.804688 C 297.78125 149.664062 297.722656 149.539062 297.636719 149.421875 C 297.078125 148.691406 296.40625 149.109375 295.75 149.378906 C 294.832031 149.757812 293.722656 150.960938 292.941406 149.851562 C 292.679688 151.75 291.023438 151.851562 289.8125 152.398438 Z M 289.8125 152.398438 " fill-opacity="1" fill-rule="nonzero"/><path fill="#000000" d="M 247.804688 159.09375 C 247.945312 159.09375 248.078125 159.160156 248.207031 159.175781 L 248.367188 159.175781 L 247.929688 158.757812 Z M 247.804688 159.09375 " fill-opacity="1" fill-rule="nonzero"/></svg>