<svg xmlns="http://www.w3.org/2000/svg" xmlns:xlink="http://www.w3.org/1999/xlink" width="500" zoomAndPan="magnify" viewBox="0 0 375 374.999991" height="500" preserveAspectRatio="xMidYMid meet" version="1.0"><defs><clipPath id="5a9bd4a643"><path d="M 47 63.457031 L 328 63.457031 L 328 169 L 47 169 Z M 47 63.457031 " clip-rule="nonzero"/></clipPath><clipPath id="ad53d3d906"><path d="M 9.367188 221 L 365.617188 221 L 365.617188 311.707031 L 9.367188 311.707031 Z M 9.367188 221 " clip-rule="nonzero"/></clipPath></defs><g clip-path="url(#5a9bd4a643)"><path fill="#000000" d="M 187.492188 168.597656 C 263.539062 168.597656 327.78125 144.523438 327.78125 116.027344 C 327.78125 87.53125 263.539062 63.457031 187.492188 63.457031 C 111.445312 63.457031 47.207031 87.53125 47.207031 116.027344 C 47.207031 144.523438 111.445312 168.597656 187.492188 168.597656 Z M 220.019531 97.109375 C 224.898438 96.105469 228.71875 98.921875 229.773438 99.8125 C 231.398438 101.199219 232.421875 102.867188 233.0625 104.390625 C 234.5625 103.785156 236.421875 103.363281 238.550781 103.597656 C 239.925781 103.746094 244.585938 104.574219 247.234375 108.820312 C 248.632812 111.066406 249.839844 114.914062 247.648438 120.496094 C 244.765625 127.859375 235.351562 132.394531 223.007812 132.394531 C 222.8125 132.394531 222.613281 132.394531 222.414062 132.390625 C 221.632812 132.382812 220.894531 132.0625 220.351562 131.503906 C 211.417969 122.289062 207.953125 112.082031 211.304688 104.859375 C 213.835938 99.410156 217.445312 97.636719 220.019531 97.109375 Z M 180.046875 78.769531 C 181.074219 73.761719 183.742188 71.570312 185.800781 70.609375 C 188.914062 69.15625 192.347656 69.820312 194.507812 70.921875 C 195.941406 71.652344 197.023438 72.660156 197.835938 73.667969 C 198.90625 72.984375 200.242188 72.402344 201.835938 72.199219 C 204.238281 71.890625 207.683594 72.421875 210.136719 74.851562 C 212.421875 77.113281 213.367188 80.53125 212.804688 84.480469 C 211.855469 91.175781 204.898438 96.78125 194.648438 99.097656 C 194.433594 99.148438 194.21875 99.167969 194 99.167969 C 193.453125 99.167969 192.902344 99.011719 192.433594 98.710938 C 183.449219 92.984375 178.703125 85.34375 180.046875 78.769531 Z M 119.640625 92.628906 C 123.429688 86.875 130.136719 86.050781 131.445312 85.945312 C 134.851562 85.671875 137.890625 86.636719 140.128906 87.730469 C 140.914062 85.414062 142.363281 82.648438 145.027344 80.492188 C 146.046875 79.664062 151.464844 75.609375 158.171875 77.164062 C 161.613281 77.960938 166.390625 80.484375 169.640625 87.976562 C 174.0625 98.15625 168.90625 112.238281 156.1875 124.71875 C 155.636719 125.253906 154.90625 125.554688 154.144531 125.554688 C 154.128906 125.554688 154.117188 125.554688 154.101562 125.554688 C 136.335938 125.316406 122.460938 118.574219 118.765625 108.382812 C 115.972656 100.703125 117.699219 95.574219 119.640625 92.628906 Z M 119.640625 92.628906 " fill-opacity="1" fill-rule="nonzero"/></g><path fill="#000000" d="M 152.957031 119.6875 C 163.132812 109.328125 167.574219 97.886719 164.285156 90.308594 C 162.003906 85.042969 158.988281 83.351562 156.855469 82.859375 C 152.6875 81.882812 149.097656 84.710938 148.699219 85.03125 C 145.28125 87.796875 145.035156 92.507812 145.035156 92.554688 C 144.984375 93.675781 144.296875 94.683594 143.261719 95.121094 C 142.222656 95.5625 141.03125 95.378906 140.1875 94.632812 C 140.164062 94.609375 136.789062 91.734375 132.644531 91.734375 C 132.40625 91.734375 132.164062 91.746094 131.921875 91.769531 C 131.40625 91.808594 126.859375 92.277344 124.511719 95.84375 C 123.3125 97.671875 122.285156 100.988281 124.242188 106.386719 C 126.988281 113.949219 138.445312 119.222656 152.957031 119.6875 Z M 152.957031 119.6875 " fill-opacity="1" fill-rule="nonzero"/><path fill="#000000" d="M 194.546875 93.109375 C 201.519531 91.269531 206.476562 87.554688 207.023438 83.660156 C 207.324219 81.558594 206.980469 79.949219 206.027344 79.007812 C 204.746094 77.734375 202.667969 77.980469 202.570312 77.996094 C 200.761719 78.226562 199.550781 79.902344 199.539062 79.921875 C 198.917969 80.867188 197.792969 81.390625 196.683594 81.199219 C 195.5625 81.039062 194.640625 80.246094 194.3125 79.164062 C 194.3125 79.164062 193.597656 77.011719 191.855469 76.125 C 191.796875 76.097656 190.824219 75.605469 189.671875 75.605469 C 189.214844 75.605469 188.726562 75.683594 188.261719 75.902344 C 187.054688 76.464844 186.191406 77.863281 185.765625 79.941406 C 184.984375 83.75 188.484375 88.949219 194.546875 93.109375 Z M 194.546875 93.109375 " fill-opacity="1" fill-rule="nonzero"/><path fill="#000000" d="M 242.207031 118.367188 C 243.242188 115.730469 243.265625 113.5 242.277344 111.914062 C 240.960938 109.800781 238.21875 109.4375 237.910156 109.40625 C 235.335938 109.113281 233.230469 111.027344 233.210938 111.042969 C 232.378906 111.796875 231.183594 112.011719 230.140625 111.59375 C 229.101562 111.167969 228.386719 110.199219 228.316406 109.082031 C 228.316406 109.070312 228.050781 106.023438 225.996094 104.273438 C 225.796875 104.101562 224.121094 102.75 222.078125 102.75 C 221.789062 102.75 221.492188 102.773438 221.1875 102.835938 C 219.921875 103.097656 218.101562 104.085938 216.589844 107.324219 C 214.445312 111.953125 217.292969 119.578125 223.695312 126.550781 C 232.96875 126.386719 240.332031 123.167969 242.207031 118.367188 Z M 242.207031 118.367188 " fill-opacity="1" fill-rule="nonzero"/><g clip-path="url(#ad53d3d906)"><path fill="#000000" d="M 333.617188 221.21875 L 333.617188 228.925781 C 333.617188 261.683594 269.433594 287.339844 187.492188 287.339844 C 105.554688 287.339844 41.371094 261.679688 41.371094 228.925781 L 41.371094 221.21875 C 20.75 230.929688 9.460938 242.425781 9.460938 253.847656 C 9.460938 285.210938 90.992188 311.707031 187.492188 311.707031 C 283.996094 311.707031 365.527344 285.210938 365.527344 253.847656 C 365.527344 242.425781 354.238281 230.929688 333.617188 221.21875 Z M 333.617188 221.21875 " fill-opacity="1" fill-rule="nonzero"/></g><path fill="#000000" d="M 187.492188 281.496094 C 263.539062 281.496094 327.78125 257.421875 327.78125 228.925781 L 327.78125 205.472656 C 321.902344 212.980469 313.199219 220.148438 305.050781 222.261719 C 297.054688 224.335938 290.933594 221.367188 285.019531 218.484375 C 279.652344 215.871094 274.585938 213.402344 268 214.621094 C 260.660156 215.972656 257.125 220.75 253.03125 226.273438 C 248.902344 231.84375 244.222656 238.160156 235.015625 239.941406 C 225.84375 241.726562 219.628906 237.613281 213.632812 233.640625 C 208.074219 229.957031 202.421875 226.164062 193.453125 226.5 C 184.4375 226.859375 178.964844 231.230469 173.671875 235.460938 C 168.636719 239.480469 163.445312 243.632812 155.816406 243.632812 C 154.988281 243.632812 154.132812 243.582031 153.242188 243.476562 C 143.820312 242.378906 138.875 236.183594 134.089844 230.1875 C 129.4375 224.359375 125.042969 218.855469 116.433594 217.265625 C 109.320312 215.949219 104.128906 218.257812 99.121094 220.492188 C 93.5625 222.964844 87.8125 225.523438 80.613281 222.347656 C 74.390625 219.597656 70.753906 213.785156 67.238281 208.171875 C 62.472656 200.558594 57.933594 193.355469 47.203125 192.25 L 47.203125 228.925781 C 47.207031 257.421875 111.445312 281.496094 187.492188 281.496094 Z M 187.492188 281.496094 " fill-opacity="1" fill-rule="nonzero"/><path fill="#000000" d="M 72.1875 205.070312 C 75.375 210.167969 78.386719 214.980469 82.972656 217.003906 C 87.808594 219.136719 91.558594 217.46875 96.746094 215.160156 C 102.027344 212.800781 108.605469 209.882812 117.496094 211.523438 C 128.242188 213.507812 133.769531 220.433594 138.648438 226.546875 C 143.066406 232.082031 146.878906 236.855469 153.914062 237.679688 C 160.550781 238.457031 164.738281 235.117188 170.027344 230.898438 C 175.773438 226.308594 182.289062 221.101562 193.214844 220.667969 C 203.925781 220.21875 210.808594 224.773438 216.851562 228.773438 C 222.554688 232.554688 227.0625 235.53125 233.90625 234.210938 C 240.886719 232.859375 244.339844 228.195312 248.335938 222.800781 C 252.554688 217.105469 257.335938 210.648438 266.9375 208.878906 C 275.410156 207.316406 281.871094 210.464844 287.566406 213.234375 C 292.980469 215.871094 297.648438 218.152344 303.578125 216.609375 C 312.832031 214.207031 324.007812 202.914062 327.773438 194.527344 L 327.773438 132.679688 C 310.246094 157.070312 254.894531 174.4375 187.492188 174.4375 C 120.09375 174.4375 64.738281 157.070312 47.207031 132.679688 L 47.207031 186.371094 C 61.214844 187.550781 67.265625 197.210938 72.1875 205.070312 Z M 72.1875 205.070312 " fill-opacity="1" fill-rule="nonzero"/></svg>