<svg xmlns="http://www.w3.org/2000/svg" xmlns:xlink="http://www.w3.org/1999/xlink" width="500" zoomAndPan="magnify" viewBox="0 0 375 374.999991" height="500" preserveAspectRatio="xMidYMid meet" version="1.0"><defs><clipPath id="6860a46eba"><path d="M 51 23 L 324 23 L 324 356.546875 L 51 356.546875 Z M 51 23 " clip-rule="nonzero"/></clipPath></defs><g clip-path="url(#6860a46eba)"><path fill="#000000" d="M 317.710938 154.601562 C 303.171875 119.953125 270.523438 93.441406 233.757812 85.765625 C 233.941406 85.125 234.308594 84.574219 234.492188 83.933594 C 238.515625 72.140625 239.246094 61.996094 236.59375 53.035156 C 233.027344 40.785156 222.601562 31.734375 211.171875 31.09375 C 199.828125 30.546875 188.214844 38.410156 182.820312 50.476562 C 180.625 45.90625 177.882812 41.609375 174.40625 37.675781 C 162.515625 24.054688 139.746094 17.839844 124.839844 30 C 117.066406 36.398438 112.675781 47.09375 113.226562 58.613281 C 113.589844 66.929688 116.335938 75.617188 121.730469 85.765625 C 122.554688 87.226562 123.46875 88.6875 124.289062 90.152344 C 96.488281 100.207031 72.527344 121.507812 59.632812 148.019531 C 53.230469 161.183594 50.761719 173.433594 52.316406 184.40625 C 54.238281 198.027344 62.925781 209.453125 74.265625 213.84375 C 74.265625 214.207031 74.175781 214.574219 74.175781 215.03125 C 79.023438 252.054688 85.242188 287.984375 92.738281 321.898438 C 95.941406 336.160156 107.1875 346.949219 121.546875 349.417969 C 147.429688 353.894531 173.492188 356.089844 199.371094 356.089844 C 215.101562 356.089844 230.742188 355.265625 246.289062 353.621094 C 262.109375 351.976562 275.09375 339.910156 277.839844 324.277344 L 297.136719 215.945312 C 300.609375 215.394531 303.996094 214.390625 307.105469 212.5625 C 316.339844 206.984375 322.375 196.472656 323.382812 184.40625 C 324.296875 175.355469 322.375 165.574219 317.710938 154.601562 Z M 133.527344 40.601562 C 136.363281 38.226562 140.019531 37.21875 143.769531 37.21875 C 151.085938 37.21875 159.132812 41.058594 164.070312 46.726562 C 173.035156 56.96875 176.144531 71.777344 178.886719 84.941406 C 179.617188 88.414062 182.820312 90.699219 186.476562 90.335938 C 190.042969 89.878906 192.605469 86.859375 192.515625 83.296875 C 192.148438 74.246094 191.78125 64.921875 194.984375 56.96875 C 197.542969 50.660156 203.671875 44.441406 210.347656 44.808594 C 216.65625 45.175781 221.6875 51.117188 223.332031 56.875 C 225.164062 63.09375 224.523438 70.496094 221.414062 79.546875 C 214.460938 100.023438 199.007812 117.394531 179.710938 126.71875 C 160.503906 115.65625 144.226562 98.929688 133.800781 79.363281 C 129.320312 71.046875 127.125 64.28125 126.851562 58.0625 C 126.667969 50.933594 129.136719 44.257812 133.527344 40.601562 Z M 106.183594 318.882812 C 98.867188 286.0625 92.832031 251.230469 88.074219 215.394531 C 92.375 214.757812 96.488281 213.292969 100.148438 210.734375 C 100.238281 210.734375 100.238281 210.640625 100.328125 210.640625 C 103.714844 219.234375 109.65625 226.367188 117.25 230.296875 C 118.4375 230.9375 119.71875 231.210938 121 231.667969 C 123.285156 266.863281 127.125 302.335938 132.519531 337.164062 C 129.6875 336.707031 126.757812 336.34375 123.925781 335.886719 C 115.144531 334.332031 108.195312 327.660156 106.183594 318.882812 Z M 180.441406 242.730469 L 181.082031 341.917969 C 169.558594 341.460938 158.035156 340.457031 146.605469 339.085938 C 146.605469 338.8125 146.695312 338.539062 146.605469 338.355469 C 141.117188 303.613281 137.277344 268.144531 134.992188 233.039062 C 137.734375 232.675781 140.386719 232.035156 142.945312 230.9375 C 145.414062 229.929688 147.609375 228.558594 149.53125 227.097656 C 155.566406 236.238281 165.808594 242.546875 176.875 242.914062 C 177.242188 242.914062 177.605469 242.914062 177.882812 242.914062 C 178.703125 242.914062 179.527344 242.820312 180.441406 242.730469 Z M 194.800781 342.285156 L 194.160156 238.523438 C 198.914062 235.875 203.121094 232.125 206.230469 227.644531 C 211.992188 232.035156 219.402344 234.226562 226.71875 233.039062 C 229.734375 232.582031 232.476562 231.484375 235.039062 230.023438 L 224.339844 341.460938 C 214.460938 342.195312 204.675781 342.375 194.800781 342.285156 Z M 264.488281 321.898438 C 262.75 331.496094 254.792969 338.996094 245.007812 340 C 242.722656 340.273438 240.527344 340.367188 238.238281 340.546875 L 249.488281 223.441406 C 253.421875 224.996094 257.8125 225.726562 262.109375 225.175781 C 269.515625 224.261719 276.191406 220.148438 280.949219 213.660156 C 281.769531 214.117188 282.777344 214.207031 283.601562 214.574219 Z M 309.847656 183.214844 C 309.207031 190.804688 305.457031 197.570312 300.152344 200.769531 C 294.847656 203.96875 287.441406 203.238281 283.964844 199.125 C 282.410156 197.296875 280.035156 196.378906 277.65625 196.746094 C 275.277344 197.113281 273.265625 198.667969 272.351562 200.953125 C 269.882812 206.984375 265.308594 211.007812 260.371094 211.648438 C 255.707031 212.195312 250.496094 209.636719 248.117188 205.523438 C 246.652344 202.964844 243.636719 201.683594 240.800781 202.230469 C 237.875 202.871094 235.769531 205.25 235.40625 208.175781 C 234.765625 213.660156 230.007812 218.6875 224.523438 219.511719 C 219.035156 220.425781 212.90625 217.042969 210.621094 212.011719 C 209.433594 209.363281 206.597656 207.71875 203.671875 207.992188 C 200.746094 208.265625 198.367188 210.460938 197.636719 213.292969 C 195.625 222.34375 186.476562 229.292969 177.242188 229.109375 C 168.003906 228.835938 159.316406 221.0625 157.945312 212.011719 C 157.488281 208.8125 154.835938 206.4375 151.632812 206.253906 C 148.34375 205.980469 145.507812 207.992188 144.59375 211.097656 C 143.3125 215.304688 139.5625 217.40625 137.460938 218.320312 C 132.886719 220.242188 127.582031 220.148438 123.558594 218.136719 C 114.414062 213.476562 110.753906 202.324219 111.03125 193.273438 C 111.210938 189.617188 108.378906 186.417969 104.71875 186.140625 C 101.0625 185.777344 97.769531 188.519531 97.402344 192.175781 C 96.945312 195.921875 94.203125 198.390625 92.554688 199.488281 C 88.988281 201.867188 84.507812 202.6875 80.757812 201.683594 C 73.351562 199.671875 67.222656 191.71875 65.945312 182.484375 C 64.753906 174.257812 66.765625 164.660156 71.980469 153.960938 C 83.777344 129.644531 106.273438 110.171875 131.972656 101.855469 C 143.679688 117.667969 158.949219 131.015625 176.144531 140.339844 C 177.148438 140.890625 178.246094 141.164062 179.4375 141.164062 C 180.351562 141.164062 181.265625 140.980469 182.179688 140.617188 C 201.84375 132.203125 217.847656 117.121094 227.996094 98.378906 C 261.652344 104.320312 291.832031 128.367188 305.089844 159.8125 C 308.839844 168.863281 310.394531 176.453125 309.847656 183.214844 Z M 309.847656 183.214844 " fill-opacity="1" fill-rule="nonzero"/></g></svg>