<svg xmlns="http://www.w3.org/2000/svg" xmlns:xlink="http://www.w3.org/1999/xlink" width="500" zoomAndPan="magnify" viewBox="0 0 375 374.999991" height="500" preserveAspectRatio="xMidYMid meet" version="1.0"><defs><clipPath id="c83e3ef4c1"><path d="M 11 62.863281 L 364 62.863281 L 364 311.863281 L 11 311.863281 Z M 11 62.863281 " clip-rule="nonzero"/></clipPath></defs><g clip-path="url(#c83e3ef4c1)"><path fill="#000000" d="M 327.648438 213.457031 L 327.648438 194.636719 C 327.648438 194.636719 327.648438 194.632812 327.648438 194.628906 L 327.648438 118.820312 C 327.648438 87.441406 266.066406 62.863281 187.449219 62.863281 C 108.835938 62.863281 47.253906 87.441406 47.253906 118.820312 L 47.253906 213.457031 C 23.574219 224.066406 11.046875 236.96875 11.046875 250.84375 C 11.046875 285.0625 88.535156 311.863281 187.449219 311.863281 C 286.367188 311.863281 363.851562 285.0625 363.851562 250.84375 C 363.851562 236.96875 351.324219 224.066406 327.648438 213.457031 Z M 52.851562 215.234375 C 52.851562 215.234375 52.851562 215.230469 52.851562 215.222656 L 52.851562 191.828125 C 63.15625 192.886719 67.515625 199.800781 72.089844 207.101562 C 75.460938 212.484375 78.945312 218.042969 84.902344 220.671875 C 91.816406 223.730469 97.335938 221.277344 102.675781 218.898438 C 107.484375 216.761719 112.464844 214.539062 119.292969 215.800781 C 127.546875 217.332031 131.761719 222.609375 136.226562 228.191406 C 140.816406 233.9375 145.558594 239.871094 154.59375 240.925781 C 155.445312 241.023438 156.265625 241.074219 157.058594 241.074219 C 164.371094 241.074219 169.359375 237.101562 174.191406 233.242188 C 179.273438 229.195312 184.523438 225.003906 193.164062 224.660156 C 201.667969 224.363281 207.195312 227.972656 212.53125 231.5 C 218.277344 235.300781 224.210938 239.242188 233.035156 237.535156 C 241.878906 235.835938 246.371094 229.785156 250.335938 224.441406 C 254.257812 219.148438 257.652344 214.582031 264.683594 213.285156 C 271.011719 212.113281 275.878906 214.480469 281.03125 216.980469 C 286.699219 219.734375 292.574219 222.578125 300.246094 220.597656 C 308.0625 218.566406 316.414062 211.695312 322.050781 204.503906 L 322.050781 215.226562 C 322.050781 215.230469 322.050781 215.234375 322.050781 215.238281 L 322.050781 226.984375 C 322.050781 254.28125 260.410156 277.34375 187.453125 277.34375 C 114.496094 277.34375 52.855469 254.28125 52.855469 226.984375 L 52.855469 215.234375 Z M 187.449219 68.460938 C 260.410156 68.460938 322.046875 91.523438 322.046875 118.820312 C 322.046875 146.117188 260.410156 169.179688 187.449219 169.179688 C 114.488281 169.179688 52.851562 146.117188 52.851562 118.820312 C 52.851562 91.523438 114.488281 68.460938 187.449219 68.460938 Z M 187.449219 306.269531 C 94.867188 306.269531 16.648438 280.890625 16.648438 250.84375 C 16.648438 239.910156 27.476562 228.890625 47.253906 219.589844 L 47.253906 226.980469 C 47.253906 258.355469 108.835938 282.9375 187.449219 282.9375 C 266.066406 282.9375 327.648438 258.355469 327.648438 226.980469 L 327.648438 219.59375 C 347.425781 228.894531 358.253906 239.910156 358.253906 250.84375 C 358.253906 280.890625 280.035156 306.269531 187.449219 306.269531 Z M 187.449219 306.269531 " fill-opacity="1" fill-rule="nonzero"/></g><path fill="#000000" d="M 155.414062 127.941406 C 155.425781 127.941406 155.4375 127.941406 155.449219 127.941406 C 156.183594 127.941406 156.886719 127.652344 157.410156 127.144531 C 169.605469 115.199219 174.5625 101.722656 170.28125 91.839844 C 167.082031 84.71875 162.558594 82.339844 159.320312 81.597656 C 153.105469 80.175781 148.113281 83.664062 146.71875 84.777344 C 144.160156 86.84375 142.769531 89.496094 142.007812 91.71875 C 139.875 90.667969 136.996094 89.738281 133.769531 90.007812 C 133.46875 90.023438 126.261719 90.460938 122.371094 96.402344 C 120.5 99.222656 118.828125 104.125 121.511719 111.496094 C 125.054688 121.265625 138.363281 127.726562 155.414062 127.941406 Z M 155.414062 127.941406 " fill-opacity="1" fill-rule="nonzero"/><path fill="#000000" d="M 218.957031 133.636719 C 219.476562 134.167969 220.183594 134.476562 220.929688 134.488281 C 221.144531 134.488281 221.363281 134.492188 221.582031 134.492188 C 233.378906 134.492188 242.378906 130.164062 245.164062 123.109375 C 247.25 117.761719 246.101562 114.074219 244.757812 111.910156 C 241.917969 107.378906 236.574219 106.929688 236.441406 106.921875 C 234.386719 106.683594 232.597656 107.101562 231.15625 107.679688 C 230.527344 106.210938 229.527344 104.585938 227.9375 103.226562 C 226.632812 102.164062 223.105469 99.792969 218.628906 100.695312 C 215.105469 101.429688 212.136719 104.074219 210.273438 108.136719 C 207.085938 115.066406 210.410156 124.835938 218.957031 133.636719 Z M 218.957031 133.636719 " fill-opacity="1" fill-rule="nonzero"/><path fill="#000000" d="M 192.191406 102.238281 C 192.644531 102.527344 193.167969 102.675781 193.695312 102.675781 C 193.902344 102.675781 194.109375 102.652344 194.316406 102.605469 C 204.140625 100.371094 210.8125 95.007812 211.714844 88.664062 C 212.003906 86.917969 212.335938 82.511719 209.171875 79.355469 C 206.453125 76.710938 202.683594 76.570312 201.214844 76.851562 C 199.683594 77.039062 198.398438 77.601562 197.367188 78.257812 C 196.585938 77.285156 195.539062 76.3125 194.148438 75.605469 C 193.128906 75.097656 189.515625 73.589844 185.835938 75.320312 C 183.027344 76.605469 181.0625 79.382812 180.3125 83.125 C 179.027344 89.433594 183.578125 96.757812 192.191406 102.238281 Z M 192.191406 102.238281 " fill-opacity="1" fill-rule="nonzero"/></svg>