<svg xmlns="http://www.w3.org/2000/svg" xmlns:xlink="http://www.w3.org/1999/xlink" width="500" zoomAndPan="magnify" viewBox="0 0 375 374.999991" height="500" preserveAspectRatio="xMidYMid meet" version="1.0"><defs><clipPath id="92384b0e42"><path d="M 38 19 L 337.5 19 L 337.5 355.710938 L 38 355.710938 Z M 38 19 " clip-rule="nonzero"/></clipPath></defs><g clip-path="url(#92384b0e42)"><path fill="#000000" d="M 48.292969 354.347656 C 46.933594 353.632812 46.167969 352.742188 45.324219 350.902344 C 44.203125 348.453125 44.164062 347.882812 42.523438 307.71875 C 37.578125 186.691406 37.757812 192.070312 38.613281 189.679688 C 39.046875 188.476562 39.402344 186.738281 39.40625 185.824219 C 39.425781 183.445312 41.441406 178.03125 43.453125 175.007812 C 47.277344 169.25 53.226562 163.878906 69.679688 151.324219 C 76.011719 146.492188 81.117188 142.046875 92.066406 131.820312 C 104.132812 120.554688 108.910156 116.75 125.898438 104.867188 C 130.578125 101.59375 137.085938 96.914062 140.359375 94.46875 C 143.632812 92.023438 146.613281 89.90625 146.980469 89.765625 C 147.347656 89.625 148.96875 87.769531 150.582031 85.640625 C 161.367188 71.414062 178.546875 50.261719 181.757812 47.253906 C 186.980469 42.363281 191.640625 39.441406 196.867188 37.769531 L 201.226562 36.378906 L 201.527344 33.359375 C 201.691406 31.699219 201.855469 28.628906 201.890625 26.53125 C 201.960938 22.273438 202.539062 20.710938 204.4375 19.644531 C 205.617188 18.984375 205.875 19 207.363281 19.800781 C 208.265625 20.285156 210.140625 22.105469 211.535156 23.847656 C 216.8125 30.441406 224.496094 37.65625 227.632812 38.964844 C 230.707031 40.246094 234.328125 43.519531 237.785156 48.140625 C 239.667969 50.660156 242.371094 54.277344 243.792969 56.175781 C 246.792969 60.191406 247.660156 60.441406 251.097656 58.265625 C 255.203125 55.664062 258.1875 51.007812 259.378906 45.335938 C 260.351562 40.71875 262.8125 36.085938 264.042969 36.5625 C 265.066406 36.957031 266.359375 40.90625 266.359375 43.644531 C 266.359375 50.859375 261.089844 60.179688 254.730469 64.21875 C 253.75 64.84375 252.945312 65.53125 252.945312 65.75 C 252.945312 65.964844 254.46875 67.890625 256.328125 70.03125 C 258.191406 72.167969 262.425781 77.921875 265.742188 82.820312 L 271.773438 91.71875 L 279.160156 94.1875 C 283.222656 95.542969 288.226562 97.328125 290.273438 98.152344 C 292.324219 98.972656 297.152344 100.585938 301 101.738281 C 312.5 105.171875 318.585938 107.757812 324.964844 111.914062 C 329.027344 114.5625 333.472656 118.703125 334.601562 120.886719 C 335.027344 121.707031 335.582031 124.660156 335.851562 127.542969 C 336.128906 130.515625 336.558594 165.652344 336.855469 209.957031 C 337.429688 295.734375 337.628906 289.4375 334.304688 290.816406 C 333.46875 291.164062 326.457031 292.855469 318.722656 294.578125 C 310.988281 296.300781 297.476562 299.332031 288.695312 301.316406 C 272.792969 304.902344 260.140625 307.746094 228.394531 314.871094 C 219.21875 316.933594 203.988281 320.355469 194.550781 322.480469 C 185.113281 324.601562 170.207031 327.957031 161.421875 329.933594 C 152.640625 331.910156 139.878906 334.78125 133.0625 336.3125 C 126.246094 337.847656 113.480469 340.714844 104.699219 342.691406 C 95.917969 344.664062 81.652344 347.875 73 349.824219 C 64.347656 351.769531 56.304688 353.808594 55.125 354.347656 C 52.441406 355.582031 50.628906 355.578125 48.292969 354.347656 Z M 58.015625 317.324219 C 65.160156 314.835938 68.648438 314.355469 82.535156 313.933594 C 95.851562 313.527344 99.507812 313.070312 107.558594 310.816406 C 112.703125 309.375 125.148438 305.148438 139.496094 299.976562 C 156.03125 294.011719 162.746094 292.097656 170.898438 291.023438 C 172.894531 290.761719 182.578125 290.558594 192.410156 290.578125 C 213.070312 290.613281 213.03125 290.617188 224.1875 286.03125 C 227.8125 284.542969 233.28125 282.292969 236.34375 281.035156 C 247.125 276.597656 260.554688 272.570312 267.003906 271.832031 C 277.300781 270.660156 286.085938 269.457031 288.683594 268.871094 C 290.453125 268.46875 294.015625 266.980469 297.027344 265.382812 C 305.03125 261.132812 309.820312 259.972656 322.300781 259.25 L 328.019531 258.921875 L 328.148438 254.160156 C 328.214844 251.539062 328.109375 247.1875 327.910156 244.488281 L 327.542969 239.578125 L 325.636719 241.03125 C 322.570312 243.367188 318.507812 244.375 309.964844 244.914062 C 300.21875 245.527344 296.410156 246.28125 290.707031 248.714844 C 272.425781 256.523438 249.675781 262.257812 228.53125 264.394531 C 217.390625 265.519531 213.480469 266.277344 207.183594 268.550781 C 199.347656 271.375 197.210938 272.03125 192.484375 273.058594 C 186.460938 274.367188 176.914062 274.425781 168.375 273.207031 C 158.203125 271.75 153.265625 272.875 141.457031 279.335938 C 125.5625 288.027344 114.679688 291.457031 101.363281 291.964844 L 93.496094 292.261719 L 85.503906 296.199219 C 80.925781 298.449219 76.152344 300.445312 74.332031 300.867188 C 72.390625 301.316406 67.351562 301.730469 61.355469 301.929688 L 51.550781 302.257812 L 51.730469 310.351562 C 51.828125 314.804688 52.011719 318.625 52.140625 318.84375 C 52.398438 319.285156 52.277344 319.316406 58.015625 317.324219 Z M 54.539062 270.660156 C 64.207031 265.847656 70.742188 264.375 88.730469 262.949219 C 101.636719 261.925781 107.347656 260.507812 126.226562 253.644531 C 137.351562 249.601562 146.453125 246.828125 150.9375 246.121094 C 155.441406 245.40625 163.878906 244.816406 175.519531 244.398438 C 194.601562 243.71875 199.558594 242.710938 216.785156 236.027344 C 240.390625 226.863281 250.285156 224.050781 265.285156 222.230469 C 279.332031 220.53125 284.019531 219.363281 291.109375 215.808594 C 296.996094 212.855469 300.371094 211.792969 307.761719 210.546875 C 315.027344 209.324219 322.53125 209.21875 325.128906 210.304688 C 326.128906 210.722656 327.132812 211.0625 327.363281 211.0625 C 327.59375 211.0625 327.78125 207.089844 327.78125 202.238281 C 327.78125 192.695312 327.625 192.144531 325.316406 193.589844 C 323.144531 194.953125 319.941406 195.390625 305.273438 196.316406 C 297.902344 196.785156 290.769531 197.953125 286.074219 199.460938 C 284.761719 199.882812 280.042969 202.109375 275.585938 204.410156 C 261.761719 211.546875 256.226562 212.808594 236.023438 213.429688 C 219.144531 213.949219 220.949219 213.523438 193.597656 223.429688 C 189.140625 225.042969 182.8125 227.105469 179.535156 228.011719 C 173.132812 229.785156 172.167969 229.894531 148.113281 231.578125 C 123.890625 233.273438 115.722656 235.070312 106.128906 240.808594 C 96.183594 246.761719 93.835938 247.664062 80.722656 250.570312 C 59.847656 255.195312 51.425781 257.425781 50.191406 258.660156 C 49.71875 259.128906 49.730469 270.589844 50.210938 271.820312 C 50.550781 272.703125 50.324219 272.761719 54.546875 270.660156 Z M 65.832031 220.851562 C 74.003906 218.671875 79.164062 215.90625 87.308594 209.347656 C 96.613281 201.855469 99.824219 200.796875 112.023438 201.1875 C 118.53125 201.398438 121.035156 201.714844 128.292969 203.265625 C 136.777344 205.074219 136.992188 205.09375 147.121094 205.066406 C 157.152344 205.042969 157.492188 205.007812 163.070312 203.496094 C 171.578125 201.1875 174.980469 199.777344 191.929688 191.515625 C 200.449219 187.367188 209.136719 183.371094 211.234375 182.644531 L 215.046875 181.316406 L 235.070312 181.296875 C 262.191406 181.269531 260.617188 181.628906 282.617188 170.457031 C 298.140625 162.570312 301.855469 160.96875 307.230469 159.851562 C 311.835938 158.890625 319.101562 158.882812 323.175781 159.828125 C 324.96875 160.246094 326.628906 160.46875 326.867188 160.320312 C 327.390625 160 327.464844 134.878906 326.945312 134.847656 C 326.75 134.828125 321.546875 134.808594 315.386719 134.789062 L 304.183594 134.757812 L 296.320312 136.777344 C 287.316406 139.09375 282.632812 139.386719 271.988281 138.3125 C 265.085938 137.613281 258.46875 138.238281 250.683594 140.332031 C 244.5625 141.976562 242.539062 143.121094 234.742188 149.359375 C 224.421875 157.613281 218.933594 160.386719 210.054688 161.824219 C 204.789062 162.679688 200.484375 162.660156 189.089844 161.722656 C 171.3125 160.265625 167.292969 161.070312 153.886719 168.785156 C 140.414062 176.539062 133.671875 177.449219 115.898438 173.914062 C 106.621094 172.066406 105.488281 171.941406 100.398438 172.175781 C 91.957031 172.566406 87.726562 174.328125 77.289062 181.800781 C 65.0625 190.554688 57.789062 194.605469 51.414062 196.214844 C 49.507812 196.695312 47.75 197.285156 47.511719 197.527344 C 47.097656 197.945312 47.785156 220.507812 48.253906 221.957031 C 48.628906 223.109375 60.070312 222.390625 65.832031 220.851562 Z M 52.265625 188.808594 C 56.628906 187.390625 63.597656 183.148438 75.097656 174.910156 C 88.910156 165.019531 97.933594 163.300781 116.617188 167.003906 C 134.679688 170.585938 137.144531 170.148438 155.464844 160.113281 C 165.4375 154.652344 171.464844 153.613281 186.6875 154.734375 C 198.144531 155.582031 209.652344 155.335938 213.378906 154.164062 C 218.726562 152.488281 222.832031 150.027344 230.472656 143.914062 C 238.960938 137.121094 242.078125 135.394531 249.023438 133.632812 C 259.355469 131.011719 265.902344 130.574219 276.710938 131.78125 C 284.054688 132.597656 285.515625 132.449219 295.613281 129.816406 C 302.214844 128.09375 302.398438 128.074219 314.597656 127.78125 C 326.800781 127.492188 326.921875 127.476562 327.824219 126.363281 C 328.324219 125.746094 328.734375 125.042969 328.734375 124.804688 C 328.734375 123.90625 324.664062 120.007812 321.632812 118.007812 C 315.414062 113.902344 309.449219 111.394531 297.035156 107.660156 C 293.367188 106.554688 288.328125 104.828125 285.84375 103.820312 C 280.511719 101.65625 275.015625 99.960938 274.457031 100.304688 C 274.238281 100.441406 273.9375 102.003906 273.789062 103.78125 C 273.375 108.683594 271.824219 112.289062 268.917969 115.105469 C 265.535156 118.382812 260.855469 121.058594 258.511719 121.058594 C 257.476562 121.058594 256.109375 121.449219 255.402344 121.949219 C 251.097656 124.984375 247.0625 126.21875 236.5 127.746094 C 229.289062 128.785156 226.261719 128.808594 215.015625 127.917969 C 209.0625 127.449219 207.785156 128.367188 204.839844 135.253906 C 202.691406 140.273438 201.558594 142.003906 199.296875 143.726562 C 195.269531 146.796875 192.125 146.113281 187.3125 141.121094 C 183.316406 136.972656 183.429688 136.953125 180.546875 142.203125 C 178.316406 146.261719 175.523438 148.972656 173.101562 149.425781 C 169.132812 150.167969 165.351562 148.53125 163.28125 145.171875 C 162.777344 144.351562 161.714844 141.601562 160.925781 139.0625 C 159.941406 135.890625 159.132812 134.164062 158.351562 133.550781 C 157.726562 133.058594 155.359375 132.164062 153.089844 131.566406 C 148.402344 130.328125 145.914062 128.703125 143.433594 125.25 C 140.246094 120.816406 138.8125 113.539062 139.859375 107.117188 C 140.144531 105.382812 140.140625 104.257812 139.859375 104.082031 C 139.378906 103.785156 137.160156 105.265625 123.292969 115.140625 C 112.28125 122.980469 107.203125 127.144531 96.359375 137.222656 C 84.007812 148.703125 79.292969 152.742188 69.90625 159.871094 C 58.851562 168.269531 54.769531 171.804688 51.589844 175.734375 C 47.160156 181.214844 44.933594 187.476562 46.769531 189.308594 C 47.621094 190.160156 48.296875 190.097656 52.269531 188.808594 Z M 71.121094 168.097656 C 69.949219 166.429688 70.203125 164.640625 71.84375 163.003906 C 74.402344 160.449219 78.003906 161.5625 78.003906 164.90625 C 78.003906 168.289062 72.910156 170.652344 71.121094 168.097656 Z M 109.324219 157.71875 C 107.769531 156.496094 107.558594 154.019531 108.90625 152.800781 C 110.265625 151.570312 112.5625 151.792969 113.722656 153.269531 C 114.929688 154.800781 114.972656 155.882812 113.875 157.179688 C 112.585938 158.695312 110.835938 158.90625 109.324219 157.71875 Z M 132.332031 154.453125 C 129.878906 152 129.882812 148.210938 132.351562 145.75 C 134.164062 143.9375 135.640625 144.03125 138.148438 146.117188 C 140.765625 148.296875 140.917969 148.542969 140.925781 150.667969 C 140.925781 152.011719 140.558594 152.820312 139.328125 154.121094 C 137.980469 155.546875 137.398438 155.824219 135.714844 155.824219 C 134.144531 155.824219 133.414062 155.527344 132.339844 154.453125 Z M 92.945312 153.949219 C 89.921875 152.105469 90.03125 147.070312 93.164062 144.242188 C 94.382812 143.136719 96.820312 143.066406 97.960938 144.097656 C 99.242188 145.257812 99.742188 150.554688 98.75 152.472656 C 97.453125 154.976562 95.460938 155.484375 92.945312 153.949219 Z M 111.847656 139.59375 C 109.738281 138.714844 108.511719 137.203125 108.511719 135.476562 C 108.511719 133.292969 109.710938 131.136719 111.125 130.78125 C 111.761719 130.621094 112.714844 129.769531 113.234375 128.886719 C 114.355469 126.984375 115.929688 126.472656 118.277344 127.246094 C 121.410156 128.28125 122.542969 131.519531 120.996094 135.015625 C 119.414062 138.585938 114.878906 140.855469 111.847656 139.59375 Z M 135.316406 136.664062 C 133.523438 135.800781 133.152344 133.042969 134.609375 131.417969 C 136.113281 129.738281 139.585938 130.730469 140.027344 132.964844 C 140.3125 134.386719 139.492188 136.148438 138.292969 136.691406 C 136.851562 137.347656 136.730469 137.347656 135.316406 136.664062 Z M 275.207031 124.386719 C 273.652344 123.160156 273.441406 120.6875 274.789062 119.464844 C 276.148438 118.238281 278.441406 118.460938 279.601562 119.933594 C 280.808594 121.464844 280.851562 122.550781 279.757812 123.84375 C 278.46875 125.363281 276.714844 125.570312 275.207031 124.386719 Z M 295.078125 118.039062 C 293.394531 116.59375 293.292969 114.160156 294.863281 112.890625 C 297.582031 110.691406 302.289062 113.398438 301.621094 116.773438 C 301.121094 119.289062 297.375 120.011719 295.078125 118.039062 Z M 174.363281 139.035156 C 178.371094 132.191406 180.179688 130.582031 183.867188 130.582031 C 186.441406 130.582031 188.382812 131.804688 191.472656 135.367188 C 192.824219 136.925781 194.3125 138.203125 194.78125 138.203125 C 195.871094 138.203125 196.941406 136.554688 198.433594 132.570312 C 200.066406 128.21875 202.167969 125.082031 204.503906 123.507812 C 208.644531 120.714844 209.917969 120.566406 223.421875 121.289062 C 233.835938 121.847656 245.140625 120.070312 250.261719 117.074219 C 252.746094 115.617188 252.824219 115.292969 251.742188 110.820312 C 251.363281 109.25 251.046875 107.160156 251.042969 106.179688 C 251.042969 104.089844 250.414062 103.914062 248.070312 105.34375 C 245.9375 106.640625 243.375 106.589844 242.085938 105.21875 C 240.070312 103.074219 239.480469 100.703125 239.417969 94.511719 C 239.371094 89.917969 239.21875 88.675781 238.707031 88.675781 C 238.347656 88.675781 236.796875 89.441406 235.261719 90.371094 C 233.722656 91.304688 231.734375 92.1875 230.835938 92.332031 C 228.898438 92.644531 226.644531 91.496094 225.691406 89.710938 C 224.605469 87.675781 224.992188 82.722656 226.605469 77.960938 C 227.40625 75.605469 227.96875 73.527344 227.855469 73.34375 C 227.746094 73.160156 225.03125 73.039062 221.828125 73.078125 C 215.554688 73.15625 213.753906 72.667969 212.21875 70.476562 C 210.652344 68.246094 211.691406 63.59375 214.5 60.273438 C 215.195312 59.449219 215.761719 58.550781 215.761719 58.273438 C 215.761719 57.996094 214.234375 56.78125 212.367188 55.574219 C 207.71875 52.570312 204.238281 49.164062 202.898438 46.308594 C 201.511719 43.347656 200.671875 43.25 195.96875 45.511719 C 189.085938 48.820312 185.414062 52.453125 172.625 68.601562 C 156.90625 88.453125 151.566406 95.714844 149.136719 100.535156 L 146.882812 105.015625 L 146.882812 111.25 C 146.882812 117.277344 146.929688 117.574219 148.304688 120.046875 C 150.035156 123.171875 150.839844 123.722656 155.765625 125.152344 C 163.1875 127.308594 165.136719 129.261719 167.460938 136.867188 C 168.800781 141.265625 169.625 142.488281 171.246094 142.488281 C 172.105469 142.488281 172.785156 141.734375 174.363281 139.035156 Z M 186.523438 123.523438 C 184.972656 121.8125 186.101562 119.628906 188.53125 119.628906 C 190.09375 119.628906 190.976562 120.410156 190.976562 121.796875 C 190.976562 124.03125 188.019531 125.175781 186.523438 123.523438 Z M 213.988281 116.179688 C 212.902344 114.777344 212.925781 113.847656 214.078125 112.699219 C 215.382812 111.398438 215.660156 111.339844 217.402344 112 C 218.917969 112.574219 219.050781 114.441406 217.671875 115.820312 C 216.597656 116.890625 214.6875 117.078125 213.988281 116.179688 Z M 169.550781 113.707031 C 167.992188 111.832031 170.683594 107.988281 172.769531 109.105469 C 173.3125 109.394531 173.886719 110.050781 174.050781 110.5625 C 174.355469 111.523438 173.605469 113.40625 172.671875 114.027344 C 171.804688 114.605469 170.15625 114.4375 169.550781 113.707031 Z M 228.992188 111.972656 C 227.824219 111.292969 227.945312 109.355469 229.214844 108.46875 C 232.230469 106.355469 235.015625 109.242188 232.144531 111.5 C 230.742188 112.601562 230.207031 112.679688 228.992188 111.972656 Z M 157.105469 108.042969 C 155.460938 107.230469 155.25 104.761719 156.734375 103.722656 C 158.15625 102.730469 159.1875 102.761719 160.15625 103.835938 C 161.539062 105.359375 161.007812 107.089844 158.773438 108.339844 C 158.496094 108.492188 157.746094 108.359375 157.105469 108.042969 Z M 199.652344 107.453125 C 197.851562 106.195312 198.582031 103.914062 200.785156 103.914062 C 202.953125 103.914062 203.542969 106.308594 201.679688 107.542969 C 200.847656 108.09375 200.550781 108.082031 199.652344 107.453125 Z M 180.726562 103.742188 C 180.179688 102.910156 180.105469 102.304688 180.441406 101.425781 C 181.453125 98.769531 185.734375 99.042969 185.734375 101.761719 C 185.734375 104.617188 182.210938 106.007812 180.726562 103.742188 Z M 217.90625 97.722656 C 216.3125 95.964844 218.585938 93.089844 220.886719 93.957031 C 222.671875 94.628906 222.277344 97.039062 220.203125 98.128906 C 218.867188 98.832031 218.921875 98.84375 217.90625 97.722656 Z M 199.097656 92.996094 C 198.375 91.644531 198.488281 90.832031 199.539062 89.886719 C 201.566406 88.050781 204.238281 90.453125 202.917969 92.917969 C 202.214844 94.234375 199.785156 94.28125 199.097656 92.996094 Z M 169.621094 87.628906 C 168.714844 86.722656 168.925781 84.492188 169.972656 83.933594 C 171.367188 83.183594 173.238281 83.339844 173.746094 84.246094 C 174.25 85.148438 173.648438 87.234375 172.714844 87.828125 C 171.855469 88.371094 170.261719 88.269531 169.621094 87.628906 Z M 184.097656 83.949219 C 182.351562 82.023438 184.765625 79.363281 186.957031 80.796875 C 188.335938 81.699219 188.449219 82.992188 187.246094 84.078125 C 186.097656 85.117188 185.117188 85.074219 184.097656 83.949219 Z M 206.867188 81.265625 C 206.46875 80.230469 207.476562 79.257812 208.199219 79.976562 C 208.808594 80.585938 208.433594 82.011719 207.660156 82.011719 C 207.382812 82.011719 207.023438 81.675781 206.867188 81.265625 Z M 183.445312 67.628906 C 182.601562 66.789062 182.75 65.125 183.746094 64.226562 C 184.839844 63.238281 185.925781 63.222656 186.890625 64.1875 C 187.894531 65.191406 187.835938 66.101562 186.6875 67.25 C 185.609375 68.324219 184.292969 68.476562 183.445312 67.628906 Z M 197.484375 64.949219 C 196.460938 63.816406 196.488281 62.824219 197.570312 61.84375 C 198.761719 60.765625 199.839844 60.859375 200.722656 62.117188 C 201.675781 63.476562 201.65625 63.71875 200.511719 64.867188 C 199.328125 66.050781 198.503906 66.070312 197.484375 64.949219 Z M 197.484375 64.949219 " fill-opacity="1" fill-rule="nonzero"/></g></svg>